M48
; DRILL file {KiCad 5.1.2} date Fri 12 Jul 2019 02:08:34 PM CST
; FORMAT={-:-/ absolute / inch / decimal}
; #@! TF.CreationDate,2019-07-12T14:08:34+08:00
; #@! TF.GenerationSoftware,Kicad,Pcbnew,5.1.2
; #@! TF.FileFunction,Plated,1,2,PTH
FMAT,2
INCH
T1C0.0157
T2C0.0394
%
G90
G05
T1
X4.665Y-3.09
X4.68Y-2.88
X4.6916Y-3.015
X4.725Y-2.915
X5.015Y-2.935
X5.045Y-2.345
X5.08Y-2.905
X5.375Y-2.745
X5.375Y-2.825
X5.44Y-2.425
T2
X4.321Y-2.6475
X4.321Y-2.7475
X4.321Y-2.8475
X4.321Y-2.9475
X4.321Y-3.0475
X4.321Y-3.1475
X4.321Y-3.2475
X4.321Y-3.3475
X5.6Y-2.25
X5.6Y-2.35
X5.6Y-2.45
X5.6Y-2.55
X5.6Y-2.65
X5.6Y-2.75
X5.6Y-2.85
X5.6Y-2.95
X5.6Y-3.05
X5.6Y-3.15
X5.6Y-3.25
X5.6Y-3.35
X5.7Y-2.25
X5.7Y-2.35
X5.7Y-2.45
X5.7Y-2.55
X5.7Y-2.65
X5.7Y-2.75
X5.7Y-2.85
X5.7Y-2.95
X5.7Y-3.05
X5.7Y-3.15
X5.7Y-3.25
X5.7Y-3.35
X4.221Y-2.2475
X4.221Y-2.3475
X4.221Y-2.4475
X4.221Y-2.5475
X4.221Y-2.6475
X4.221Y-2.7475
X4.221Y-2.8475
X4.221Y-2.9475
X4.221Y-3.0475
X4.221Y-3.1475
X4.221Y-3.2475
X4.221Y-3.3475
T0
M30
