G04 #@! TF.GenerationSoftware,KiCad,Pcbnew,5.1.2*
G04 #@! TF.CreationDate,2019-07-12T14:08:37+08:00*
G04 #@! TF.ProjectId,GPS,4750532e-6b69-4636-9164-5f7063625858,0.2*
G04 #@! TF.SameCoordinates,Original*
G04 #@! TF.FileFunction,Copper,L1,Top*
G04 #@! TF.FilePolarity,Positive*
%FSLAX46Y46*%
G04 Gerber Fmt 4.6, Leading zero omitted, Abs format (unit mm)*
G04 Created by KiCad (PCBNEW 5.1.2) date 2019-07-12 14:08:37*
%MOMM*%
%LPD*%
G04 APERTURE LIST*
%ADD10O,1.700000X1.700000*%
%ADD11R,1.700000X1.700000*%
%ADD12C,0.800000*%
%ADD13C,0.250000*%
%ADD14C,0.150000*%
%ADD15C,0.254000*%
G04 APERTURE END LIST*
D10*
X109753400Y-67246500D03*
X109753400Y-69786500D03*
X109753400Y-72326500D03*
X109753400Y-74866500D03*
X109753400Y-77406500D03*
X109753400Y-79946500D03*
X109753400Y-82486500D03*
D11*
X109753400Y-85026500D03*
D10*
X107213400Y-85026500D03*
X107213400Y-82486500D03*
X107213400Y-79946500D03*
X107213400Y-77406500D03*
X107213400Y-74866500D03*
X107213400Y-72326500D03*
X107213400Y-69786500D03*
X107213400Y-67246500D03*
X107213400Y-64706500D03*
X107213400Y-62166500D03*
X107213400Y-59626500D03*
D11*
X107213400Y-57086500D03*
D10*
X144780000Y-85090000D03*
X142240000Y-85090000D03*
X144780000Y-82550000D03*
X142240000Y-82550000D03*
X144780000Y-80010000D03*
X142240000Y-80010000D03*
X144780000Y-77470000D03*
X142240000Y-77470000D03*
X144780000Y-74930000D03*
X142240000Y-74930000D03*
X144780000Y-72390000D03*
X142240000Y-72390000D03*
X144780000Y-69850000D03*
X142240000Y-69850000D03*
X144780000Y-67310000D03*
X142240000Y-67310000D03*
X144780000Y-64770000D03*
X142240000Y-64770000D03*
X144780000Y-62230000D03*
X142240000Y-62230000D03*
X144780000Y-59690000D03*
X142240000Y-59690000D03*
X144780000Y-57150000D03*
D11*
X142240000Y-57150000D03*
D12*
X138176000Y-61595000D03*
X120015000Y-74041000D03*
X127381000Y-74549000D03*
X129032000Y-73787000D03*
X136525000Y-69723000D03*
X118491000Y-78486000D03*
X136525000Y-71755000D03*
X119166000Y-76581000D03*
X128143000Y-59563000D03*
X118872000Y-73152000D03*
D13*
X144780000Y-72390000D02*
X143930001Y-73239999D01*
X143930001Y-73239999D02*
X143383000Y-73787000D01*
X143930001Y-63920001D02*
X144780000Y-64770000D01*
X140175999Y-63594999D02*
X143604999Y-63594999D01*
X143604999Y-63594999D02*
X143930001Y-63920001D01*
X138176000Y-61595000D02*
X140175999Y-63594999D01*
X123589999Y-73641001D02*
X120414999Y-73641001D01*
X120414999Y-73641001D02*
X120015000Y-74041000D01*
X142240000Y-57150000D02*
X140081000Y-57150000D01*
X140081000Y-57150000D02*
X123589999Y-73641001D01*
X129978002Y-73914000D02*
X129978002Y-68525818D01*
X137633821Y-60869999D02*
X140879999Y-60869999D01*
X141390001Y-61380001D02*
X142240000Y-62230000D01*
X129978002Y-68525818D02*
X137633821Y-60869999D01*
X140879999Y-60869999D02*
X141390001Y-61380001D01*
X129343002Y-74549000D02*
X129978002Y-73914000D01*
X127381000Y-74549000D02*
X129343002Y-74549000D01*
X129032000Y-68835410D02*
X138177410Y-59690000D01*
X129032000Y-73787000D02*
X129032000Y-68835410D01*
X141037919Y-59690000D02*
X142240000Y-59690000D01*
X138177410Y-59690000D02*
X141037919Y-59690000D01*
D14*
X118491000Y-76073000D02*
X118491000Y-78486000D01*
X119126000Y-75438000D02*
X118491000Y-76073000D01*
X136525000Y-69723000D02*
X130810000Y-75438000D01*
X130810000Y-75438000D02*
X119126000Y-75438000D01*
X136525000Y-71755000D02*
X131699000Y-76581000D01*
X131699000Y-76581000D02*
X121746000Y-76581000D01*
X121746000Y-76581000D02*
X119166000Y-76581000D01*
X128143000Y-59563000D02*
X127635000Y-60071000D01*
X127635000Y-60071000D02*
X127889000Y-60325000D01*
X127889000Y-60325000D02*
X127889000Y-68707000D01*
X127889000Y-68707000D02*
X123444000Y-73152000D01*
X123444000Y-73152000D02*
X118872000Y-73152000D01*
D15*
G36*
X145644001Y-56266592D02*
G01*
X145467216Y-56121509D01*
X145253363Y-56007202D01*
X145021318Y-55936812D01*
X144840472Y-55919000D01*
X144719528Y-55919000D01*
X144538682Y-55936812D01*
X144306637Y-56007202D01*
X144092784Y-56121509D01*
X143905340Y-56275340D01*
X143751509Y-56462784D01*
X143637202Y-56676637D01*
X143566812Y-56908682D01*
X143543044Y-57150000D01*
X143566812Y-57391318D01*
X143637202Y-57623363D01*
X143751509Y-57837216D01*
X143905340Y-58024660D01*
X144092784Y-58178491D01*
X144306637Y-58292798D01*
X144538682Y-58363188D01*
X144719528Y-58381000D01*
X144840472Y-58381000D01*
X145021318Y-58363188D01*
X145253363Y-58292798D01*
X145467216Y-58178491D01*
X145644001Y-58033408D01*
X145644001Y-58806592D01*
X145467216Y-58661509D01*
X145253363Y-58547202D01*
X145021318Y-58476812D01*
X144840472Y-58459000D01*
X144719528Y-58459000D01*
X144538682Y-58476812D01*
X144306637Y-58547202D01*
X144092784Y-58661509D01*
X143905340Y-58815340D01*
X143751509Y-59002784D01*
X143637202Y-59216637D01*
X143566812Y-59448682D01*
X143543044Y-59690000D01*
X143566812Y-59931318D01*
X143637202Y-60163363D01*
X143751509Y-60377216D01*
X143905340Y-60564660D01*
X144092784Y-60718491D01*
X144306637Y-60832798D01*
X144538682Y-60903188D01*
X144719528Y-60921000D01*
X144840472Y-60921000D01*
X145021318Y-60903188D01*
X145253363Y-60832798D01*
X145467216Y-60718491D01*
X145644001Y-60573408D01*
X145644001Y-61346592D01*
X145467216Y-61201509D01*
X145253363Y-61087202D01*
X145021318Y-61016812D01*
X144840472Y-60999000D01*
X144719528Y-60999000D01*
X144538682Y-61016812D01*
X144306637Y-61087202D01*
X144092784Y-61201509D01*
X143905340Y-61355340D01*
X143751509Y-61542784D01*
X143637202Y-61756637D01*
X143566812Y-61988682D01*
X143543044Y-62230000D01*
X143566812Y-62471318D01*
X143637202Y-62703363D01*
X143751509Y-62917216D01*
X143905340Y-63104660D01*
X144092784Y-63258491D01*
X144306637Y-63372798D01*
X144538682Y-63443188D01*
X144719528Y-63461000D01*
X144840472Y-63461000D01*
X145021318Y-63443188D01*
X145253363Y-63372798D01*
X145467216Y-63258491D01*
X145644001Y-63113408D01*
X145644001Y-63886592D01*
X145467216Y-63741509D01*
X145253363Y-63627202D01*
X145021318Y-63556812D01*
X144840472Y-63539000D01*
X144719528Y-63539000D01*
X144538682Y-63556812D01*
X144342051Y-63616459D01*
X144270222Y-63544631D01*
X143980375Y-63254784D01*
X143964526Y-63235472D01*
X143887478Y-63172240D01*
X143799574Y-63125254D01*
X143704192Y-63096321D01*
X143629853Y-63088999D01*
X143629845Y-63088999D01*
X143604999Y-63086552D01*
X143580153Y-63088999D01*
X143127513Y-63088999D01*
X143268491Y-62917216D01*
X143382798Y-62703363D01*
X143453188Y-62471318D01*
X143476956Y-62230000D01*
X143453188Y-61988682D01*
X143382798Y-61756637D01*
X143268491Y-61542784D01*
X143114660Y-61355340D01*
X142927216Y-61201509D01*
X142713363Y-61087202D01*
X142481318Y-61016812D01*
X142300472Y-60999000D01*
X142179528Y-60999000D01*
X141998682Y-61016812D01*
X141802051Y-61076459D01*
X141765375Y-61039784D01*
X141765371Y-61039779D01*
X141255375Y-60529784D01*
X141239526Y-60510472D01*
X141162478Y-60447240D01*
X141074574Y-60400254D01*
X140979192Y-60371321D01*
X140904853Y-60363999D01*
X140904845Y-60363999D01*
X140879999Y-60361552D01*
X140855153Y-60363999D01*
X138219003Y-60363999D01*
X138387002Y-60196000D01*
X141114647Y-60196000D01*
X141211509Y-60377216D01*
X141365340Y-60564660D01*
X141552784Y-60718491D01*
X141766637Y-60832798D01*
X141998682Y-60903188D01*
X142179528Y-60921000D01*
X142300472Y-60921000D01*
X142481318Y-60903188D01*
X142713363Y-60832798D01*
X142927216Y-60718491D01*
X143114660Y-60564660D01*
X143268491Y-60377216D01*
X143382798Y-60163363D01*
X143453188Y-59931318D01*
X143476956Y-59690000D01*
X143453188Y-59448682D01*
X143382798Y-59216637D01*
X143268491Y-59002784D01*
X143114660Y-58815340D01*
X142927216Y-58661509D01*
X142713363Y-58547202D01*
X142481318Y-58476812D01*
X142300472Y-58459000D01*
X142179528Y-58459000D01*
X141998682Y-58476812D01*
X141766637Y-58547202D01*
X141552784Y-58661509D01*
X141365340Y-58815340D01*
X141211509Y-59002784D01*
X141114647Y-59184000D01*
X138762592Y-59184000D01*
X140290592Y-57656000D01*
X141007157Y-57656000D01*
X141007157Y-58000000D01*
X141014513Y-58074689D01*
X141036299Y-58146508D01*
X141071678Y-58212696D01*
X141119289Y-58270711D01*
X141177304Y-58318322D01*
X141243492Y-58353701D01*
X141315311Y-58375487D01*
X141390000Y-58382843D01*
X143090000Y-58382843D01*
X143164689Y-58375487D01*
X143236508Y-58353701D01*
X143302696Y-58318322D01*
X143360711Y-58270711D01*
X143408322Y-58212696D01*
X143443701Y-58146508D01*
X143465487Y-58074689D01*
X143472843Y-58000000D01*
X143472843Y-56300000D01*
X143465487Y-56225311D01*
X143443701Y-56153492D01*
X143408322Y-56087304D01*
X143360711Y-56029289D01*
X143302696Y-55981678D01*
X143236508Y-55946299D01*
X143164689Y-55924513D01*
X143090000Y-55917157D01*
X141390000Y-55917157D01*
X141315311Y-55924513D01*
X141243492Y-55946299D01*
X141177304Y-55981678D01*
X141119289Y-56029289D01*
X141071678Y-56087304D01*
X141036299Y-56153492D01*
X141014513Y-56225311D01*
X141007157Y-56300000D01*
X141007157Y-56644000D01*
X140105845Y-56644000D01*
X140080999Y-56641553D01*
X140056153Y-56644000D01*
X140056146Y-56644000D01*
X139991694Y-56650348D01*
X139981806Y-56651322D01*
X139959607Y-56658056D01*
X139886425Y-56680255D01*
X139798521Y-56727241D01*
X139721473Y-56790473D01*
X139705628Y-56809780D01*
X128345000Y-68170409D01*
X128345000Y-60347395D01*
X128347206Y-60324999D01*
X128346596Y-60318803D01*
X128370809Y-60313987D01*
X128512942Y-60255113D01*
X128640859Y-60169642D01*
X128749642Y-60060859D01*
X128835113Y-59932942D01*
X128893987Y-59790809D01*
X128924000Y-59639922D01*
X128924000Y-59486078D01*
X128893987Y-59335191D01*
X128835113Y-59193058D01*
X128749642Y-59065141D01*
X128640859Y-58956358D01*
X128512942Y-58870887D01*
X128370809Y-58812013D01*
X128219922Y-58782000D01*
X128066078Y-58782000D01*
X127915191Y-58812013D01*
X127773058Y-58870887D01*
X127645141Y-58956358D01*
X127536358Y-59065141D01*
X127450887Y-59193058D01*
X127392013Y-59335191D01*
X127362000Y-59486078D01*
X127362000Y-59639922D01*
X127371821Y-59689298D01*
X127328394Y-59732725D01*
X127311000Y-59747000D01*
X127296725Y-59764394D01*
X127296721Y-59764398D01*
X127254016Y-59816435D01*
X127211673Y-59895653D01*
X127185599Y-59981609D01*
X127176794Y-60071000D01*
X127185599Y-60160391D01*
X127211673Y-60246347D01*
X127254016Y-60325565D01*
X127296721Y-60377602D01*
X127296725Y-60377606D01*
X127311000Y-60395000D01*
X127328394Y-60409275D01*
X127433000Y-60513881D01*
X127433001Y-68518118D01*
X123255119Y-72696000D01*
X119506611Y-72696000D01*
X119478642Y-72654141D01*
X119369859Y-72545358D01*
X119241942Y-72459887D01*
X119099809Y-72401013D01*
X118948922Y-72371000D01*
X118795078Y-72371000D01*
X118644191Y-72401013D01*
X118502058Y-72459887D01*
X118374141Y-72545358D01*
X118265358Y-72654141D01*
X118179887Y-72782058D01*
X118121013Y-72924191D01*
X118091000Y-73075078D01*
X118091000Y-73228922D01*
X118121013Y-73379809D01*
X118179887Y-73521942D01*
X118265358Y-73649859D01*
X118374141Y-73758642D01*
X118502058Y-73844113D01*
X118644191Y-73902987D01*
X118795078Y-73933000D01*
X118948922Y-73933000D01*
X119099809Y-73902987D01*
X119241942Y-73844113D01*
X119260303Y-73831845D01*
X119234000Y-73964078D01*
X119234000Y-74117922D01*
X119264013Y-74268809D01*
X119322887Y-74410942D01*
X119408358Y-74538859D01*
X119517141Y-74647642D01*
X119645058Y-74733113D01*
X119787191Y-74791987D01*
X119938078Y-74822000D01*
X120091922Y-74822000D01*
X120242809Y-74791987D01*
X120384942Y-74733113D01*
X120512859Y-74647642D01*
X120621642Y-74538859D01*
X120707113Y-74410942D01*
X120765987Y-74268809D01*
X120790216Y-74147001D01*
X123565153Y-74147001D01*
X123589999Y-74149448D01*
X123614845Y-74147001D01*
X123614853Y-74147001D01*
X123689192Y-74139679D01*
X123784574Y-74110746D01*
X123872478Y-74063760D01*
X123949526Y-74000528D01*
X123965375Y-73981216D01*
X128526001Y-69420590D01*
X128526000Y-73188499D01*
X128425358Y-73289141D01*
X128339887Y-73417058D01*
X128281013Y-73559191D01*
X128251000Y-73710078D01*
X128251000Y-73863922D01*
X128281013Y-74014809D01*
X128292690Y-74043000D01*
X127979501Y-74043000D01*
X127878859Y-73942358D01*
X127750942Y-73856887D01*
X127608809Y-73798013D01*
X127457922Y-73768000D01*
X127304078Y-73768000D01*
X127153191Y-73798013D01*
X127011058Y-73856887D01*
X126883141Y-73942358D01*
X126774358Y-74051141D01*
X126688887Y-74179058D01*
X126630013Y-74321191D01*
X126600000Y-74472078D01*
X126600000Y-74625922D01*
X126630013Y-74776809D01*
X126688887Y-74918942D01*
X126731021Y-74982000D01*
X119148396Y-74982000D01*
X119126000Y-74979794D01*
X119103604Y-74982000D01*
X119103601Y-74982000D01*
X119036608Y-74988598D01*
X118950652Y-75014673D01*
X118871434Y-75057015D01*
X118842230Y-75080982D01*
X118801999Y-75113999D01*
X118787717Y-75131402D01*
X118184402Y-75734717D01*
X118166999Y-75748999D01*
X118110016Y-75818435D01*
X118067673Y-75897653D01*
X118041598Y-75983609D01*
X118035000Y-76050601D01*
X118032794Y-76073000D01*
X118035000Y-76095396D01*
X118035001Y-77851388D01*
X117993141Y-77879358D01*
X117884358Y-77988141D01*
X117798887Y-78116058D01*
X117740013Y-78258191D01*
X117710000Y-78409078D01*
X117710000Y-78562922D01*
X117740013Y-78713809D01*
X117798887Y-78855942D01*
X117884358Y-78983859D01*
X117993141Y-79092642D01*
X118121058Y-79178113D01*
X118263191Y-79236987D01*
X118414078Y-79267000D01*
X118567922Y-79267000D01*
X118718809Y-79236987D01*
X118860942Y-79178113D01*
X118988859Y-79092642D01*
X119097642Y-78983859D01*
X119183113Y-78855942D01*
X119241987Y-78713809D01*
X119272000Y-78562922D01*
X119272000Y-78409078D01*
X119241987Y-78258191D01*
X119183113Y-78116058D01*
X119097642Y-77988141D01*
X118988859Y-77879358D01*
X118947000Y-77851389D01*
X118947000Y-77470000D01*
X141003044Y-77470000D01*
X141026812Y-77711318D01*
X141097202Y-77943363D01*
X141211509Y-78157216D01*
X141365340Y-78344660D01*
X141552784Y-78498491D01*
X141766637Y-78612798D01*
X141998682Y-78683188D01*
X142179528Y-78701000D01*
X142300472Y-78701000D01*
X142481318Y-78683188D01*
X142713363Y-78612798D01*
X142927216Y-78498491D01*
X143114660Y-78344660D01*
X143268491Y-78157216D01*
X143382798Y-77943363D01*
X143453188Y-77711318D01*
X143476956Y-77470000D01*
X143453188Y-77228682D01*
X143382798Y-76996637D01*
X143268491Y-76782784D01*
X143114660Y-76595340D01*
X142927216Y-76441509D01*
X142713363Y-76327202D01*
X142481318Y-76256812D01*
X142300472Y-76239000D01*
X142179528Y-76239000D01*
X141998682Y-76256812D01*
X141766637Y-76327202D01*
X141552784Y-76441509D01*
X141365340Y-76595340D01*
X141211509Y-76782784D01*
X141097202Y-76996637D01*
X141026812Y-77228682D01*
X141003044Y-77470000D01*
X118947000Y-77470000D01*
X118947000Y-77333739D01*
X119089078Y-77362000D01*
X119242922Y-77362000D01*
X119393809Y-77331987D01*
X119535942Y-77273113D01*
X119663859Y-77187642D01*
X119772642Y-77078859D01*
X119800611Y-77037000D01*
X131676604Y-77037000D01*
X131699000Y-77039206D01*
X131721396Y-77037000D01*
X131721399Y-77037000D01*
X131788392Y-77030402D01*
X131874348Y-77004327D01*
X131953566Y-76961984D01*
X132023001Y-76905001D01*
X132037283Y-76887598D01*
X133994881Y-74930000D01*
X141003044Y-74930000D01*
X141026812Y-75171318D01*
X141097202Y-75403363D01*
X141211509Y-75617216D01*
X141365340Y-75804660D01*
X141552784Y-75958491D01*
X141766637Y-76072798D01*
X141998682Y-76143188D01*
X142179528Y-76161000D01*
X142300472Y-76161000D01*
X142481318Y-76143188D01*
X142713363Y-76072798D01*
X142927216Y-75958491D01*
X143114660Y-75804660D01*
X143268491Y-75617216D01*
X143382798Y-75403363D01*
X143453188Y-75171318D01*
X143476956Y-74930000D01*
X143453188Y-74688682D01*
X143382798Y-74456637D01*
X143268491Y-74242784D01*
X143114660Y-74055340D01*
X142927216Y-73901509D01*
X142713363Y-73787202D01*
X142481318Y-73716812D01*
X142300472Y-73699000D01*
X142179528Y-73699000D01*
X141998682Y-73716812D01*
X141766637Y-73787202D01*
X141552784Y-73901509D01*
X141365340Y-74055340D01*
X141211509Y-74242784D01*
X141097202Y-74456637D01*
X141026812Y-74688682D01*
X141003044Y-74930000D01*
X133994881Y-74930000D01*
X136398702Y-72526179D01*
X136448078Y-72536000D01*
X136601922Y-72536000D01*
X136752809Y-72505987D01*
X136894942Y-72447113D01*
X137022859Y-72361642D01*
X137131642Y-72252859D01*
X137217113Y-72124942D01*
X137275987Y-71982809D01*
X137306000Y-71831922D01*
X137306000Y-71678078D01*
X137275987Y-71527191D01*
X137217113Y-71385058D01*
X137131642Y-71257141D01*
X137022859Y-71148358D01*
X136894942Y-71062887D01*
X136752809Y-71004013D01*
X136601922Y-70974000D01*
X136448078Y-70974000D01*
X136297191Y-71004013D01*
X136155058Y-71062887D01*
X136027141Y-71148358D01*
X135918358Y-71257141D01*
X135832887Y-71385058D01*
X135774013Y-71527191D01*
X135744000Y-71678078D01*
X135744000Y-71831922D01*
X135753821Y-71881298D01*
X131510119Y-76125000D01*
X119800611Y-76125000D01*
X119772642Y-76083141D01*
X119663859Y-75974358D01*
X119543594Y-75894000D01*
X130787604Y-75894000D01*
X130810000Y-75896206D01*
X130832396Y-75894000D01*
X130832399Y-75894000D01*
X130899392Y-75887402D01*
X130985348Y-75861327D01*
X131064566Y-75818984D01*
X131134001Y-75762001D01*
X131148283Y-75744598D01*
X136398702Y-70494179D01*
X136448078Y-70504000D01*
X136601922Y-70504000D01*
X136752809Y-70473987D01*
X136894942Y-70415113D01*
X137022859Y-70329642D01*
X137131642Y-70220859D01*
X137217113Y-70092942D01*
X137275987Y-69950809D01*
X137306000Y-69799922D01*
X137306000Y-69646078D01*
X137275987Y-69495191D01*
X137217113Y-69353058D01*
X137131642Y-69225141D01*
X137022859Y-69116358D01*
X136894942Y-69030887D01*
X136752809Y-68972013D01*
X136601922Y-68942000D01*
X136448078Y-68942000D01*
X136297191Y-68972013D01*
X136155058Y-69030887D01*
X136027141Y-69116358D01*
X135918358Y-69225141D01*
X135832887Y-69353058D01*
X135774013Y-69495191D01*
X135744000Y-69646078D01*
X135744000Y-69799922D01*
X135753821Y-69849298D01*
X130621119Y-74982000D01*
X129606322Y-74982000D01*
X129625481Y-74971759D01*
X129702529Y-74908527D01*
X129718378Y-74889215D01*
X130318222Y-74289372D01*
X130337529Y-74273527D01*
X130400761Y-74196479D01*
X130447747Y-74108575D01*
X130476680Y-74013193D01*
X130484002Y-73938854D01*
X130484002Y-73938853D01*
X130486450Y-73914000D01*
X130484002Y-73889146D01*
X130484002Y-68735409D01*
X137420300Y-61799112D01*
X137425013Y-61822809D01*
X137483887Y-61964942D01*
X137569358Y-62092859D01*
X137678141Y-62201642D01*
X137806058Y-62287113D01*
X137948191Y-62345987D01*
X138099078Y-62376000D01*
X138241409Y-62376000D01*
X139800627Y-63935219D01*
X139816472Y-63954526D01*
X139893520Y-64017758D01*
X139981424Y-64064744D01*
X140076806Y-64093677D01*
X140175999Y-64103447D01*
X140200853Y-64100999D01*
X141201773Y-64100999D01*
X141097202Y-64296637D01*
X141026812Y-64528682D01*
X141003044Y-64770000D01*
X141026812Y-65011318D01*
X141097202Y-65243363D01*
X141211509Y-65457216D01*
X141365340Y-65644660D01*
X141552784Y-65798491D01*
X141763305Y-65911017D01*
X141608748Y-65965843D01*
X141358645Y-66114822D01*
X141142412Y-66309731D01*
X140968359Y-66543080D01*
X140843175Y-66805901D01*
X140798524Y-66953110D01*
X140919845Y-67183000D01*
X142113000Y-67183000D01*
X142113000Y-67163000D01*
X142367000Y-67163000D01*
X142367000Y-67183000D01*
X142387000Y-67183000D01*
X142387000Y-67437000D01*
X142367000Y-67437000D01*
X142367000Y-67457000D01*
X142113000Y-67457000D01*
X142113000Y-67437000D01*
X140919845Y-67437000D01*
X140798524Y-67666890D01*
X140843175Y-67814099D01*
X140968359Y-68076920D01*
X141142412Y-68310269D01*
X141358645Y-68505178D01*
X141608748Y-68654157D01*
X141763305Y-68708983D01*
X141552784Y-68821509D01*
X141365340Y-68975340D01*
X141211509Y-69162784D01*
X141097202Y-69376637D01*
X141026812Y-69608682D01*
X141003044Y-69850000D01*
X141026812Y-70091318D01*
X141097202Y-70323363D01*
X141211509Y-70537216D01*
X141365340Y-70724660D01*
X141552784Y-70878491D01*
X141766637Y-70992798D01*
X141998682Y-71063188D01*
X142179528Y-71081000D01*
X142300472Y-71081000D01*
X142481318Y-71063188D01*
X142713363Y-70992798D01*
X142927216Y-70878491D01*
X143114660Y-70724660D01*
X143268491Y-70537216D01*
X143382798Y-70323363D01*
X143453188Y-70091318D01*
X143476956Y-69850000D01*
X143453188Y-69608682D01*
X143382798Y-69376637D01*
X143268491Y-69162784D01*
X143114660Y-68975340D01*
X142927216Y-68821509D01*
X142716695Y-68708983D01*
X142871252Y-68654157D01*
X143121355Y-68505178D01*
X143337588Y-68310269D01*
X143511641Y-68076920D01*
X143636825Y-67814099D01*
X143642909Y-67794040D01*
X143751509Y-67997216D01*
X143905340Y-68184660D01*
X144092784Y-68338491D01*
X144306637Y-68452798D01*
X144538682Y-68523188D01*
X144719528Y-68541000D01*
X144840472Y-68541000D01*
X145021318Y-68523188D01*
X145253363Y-68452798D01*
X145467216Y-68338491D01*
X145644001Y-68193408D01*
X145644001Y-68966592D01*
X145467216Y-68821509D01*
X145253363Y-68707202D01*
X145021318Y-68636812D01*
X144840472Y-68619000D01*
X144719528Y-68619000D01*
X144538682Y-68636812D01*
X144306637Y-68707202D01*
X144092784Y-68821509D01*
X143905340Y-68975340D01*
X143751509Y-69162784D01*
X143637202Y-69376637D01*
X143566812Y-69608682D01*
X143543044Y-69850000D01*
X143566812Y-70091318D01*
X143637202Y-70323363D01*
X143751509Y-70537216D01*
X143905340Y-70724660D01*
X144092784Y-70878491D01*
X144303305Y-70991017D01*
X144148748Y-71045843D01*
X143898645Y-71194822D01*
X143682412Y-71389731D01*
X143508359Y-71623080D01*
X143383175Y-71885901D01*
X143377091Y-71905960D01*
X143268491Y-71702784D01*
X143114660Y-71515340D01*
X142927216Y-71361509D01*
X142713363Y-71247202D01*
X142481318Y-71176812D01*
X142300472Y-71159000D01*
X142179528Y-71159000D01*
X141998682Y-71176812D01*
X141766637Y-71247202D01*
X141552784Y-71361509D01*
X141365340Y-71515340D01*
X141211509Y-71702784D01*
X141097202Y-71916637D01*
X141026812Y-72148682D01*
X141003044Y-72390000D01*
X141026812Y-72631318D01*
X141097202Y-72863363D01*
X141211509Y-73077216D01*
X141365340Y-73264660D01*
X141552784Y-73418491D01*
X141766637Y-73532798D01*
X141998682Y-73603188D01*
X142179528Y-73621000D01*
X142300472Y-73621000D01*
X142481318Y-73603188D01*
X142713363Y-73532798D01*
X142927216Y-73418491D01*
X143114660Y-73264660D01*
X143268491Y-73077216D01*
X143377091Y-72874040D01*
X143383175Y-72894099D01*
X143508359Y-73156920D01*
X143682412Y-73390269D01*
X143898645Y-73585178D01*
X144148748Y-73734157D01*
X144303305Y-73788983D01*
X144092784Y-73901509D01*
X143905340Y-74055340D01*
X143751509Y-74242784D01*
X143637202Y-74456637D01*
X143566812Y-74688682D01*
X143543044Y-74930000D01*
X143566812Y-75171318D01*
X143637202Y-75403363D01*
X143751509Y-75617216D01*
X143905340Y-75804660D01*
X144092784Y-75958491D01*
X144306637Y-76072798D01*
X144538682Y-76143188D01*
X144719528Y-76161000D01*
X144840472Y-76161000D01*
X145021318Y-76143188D01*
X145253363Y-76072798D01*
X145467216Y-75958491D01*
X145644000Y-75813408D01*
X145644000Y-76586592D01*
X145467216Y-76441509D01*
X145253363Y-76327202D01*
X145021318Y-76256812D01*
X144840472Y-76239000D01*
X144719528Y-76239000D01*
X144538682Y-76256812D01*
X144306637Y-76327202D01*
X144092784Y-76441509D01*
X143905340Y-76595340D01*
X143751509Y-76782784D01*
X143637202Y-76996637D01*
X143566812Y-77228682D01*
X143543044Y-77470000D01*
X143566812Y-77711318D01*
X143637202Y-77943363D01*
X143751509Y-78157216D01*
X143905340Y-78344660D01*
X144092784Y-78498491D01*
X144306637Y-78612798D01*
X144538682Y-78683188D01*
X144719528Y-78701000D01*
X144840472Y-78701000D01*
X145021318Y-78683188D01*
X145253363Y-78612798D01*
X145467216Y-78498491D01*
X145644000Y-78353408D01*
X145644000Y-79126592D01*
X145467216Y-78981509D01*
X145253363Y-78867202D01*
X145021318Y-78796812D01*
X144840472Y-78779000D01*
X144719528Y-78779000D01*
X144538682Y-78796812D01*
X144306637Y-78867202D01*
X144092784Y-78981509D01*
X143905340Y-79135340D01*
X143751509Y-79322784D01*
X143637202Y-79536637D01*
X143566812Y-79768682D01*
X143543044Y-80010000D01*
X143566812Y-80251318D01*
X143637202Y-80483363D01*
X143751509Y-80697216D01*
X143905340Y-80884660D01*
X144092784Y-81038491D01*
X144306637Y-81152798D01*
X144538682Y-81223188D01*
X144719528Y-81241000D01*
X144840472Y-81241000D01*
X145021318Y-81223188D01*
X145253363Y-81152798D01*
X145467216Y-81038491D01*
X145644000Y-80893408D01*
X145644000Y-81666592D01*
X145467216Y-81521509D01*
X145253363Y-81407202D01*
X145021318Y-81336812D01*
X144840472Y-81319000D01*
X144719528Y-81319000D01*
X144538682Y-81336812D01*
X144306637Y-81407202D01*
X144092784Y-81521509D01*
X143905340Y-81675340D01*
X143751509Y-81862784D01*
X143637202Y-82076637D01*
X143566812Y-82308682D01*
X143543044Y-82550000D01*
X143566812Y-82791318D01*
X143637202Y-83023363D01*
X143751509Y-83237216D01*
X143905340Y-83424660D01*
X144092784Y-83578491D01*
X144306637Y-83692798D01*
X144538682Y-83763188D01*
X144719528Y-83781000D01*
X144840472Y-83781000D01*
X145021318Y-83763188D01*
X145253363Y-83692798D01*
X145467216Y-83578491D01*
X145644000Y-83433408D01*
X145644000Y-84206592D01*
X145467216Y-84061509D01*
X145253363Y-83947202D01*
X145021318Y-83876812D01*
X144840472Y-83859000D01*
X144719528Y-83859000D01*
X144538682Y-83876812D01*
X144306637Y-83947202D01*
X144092784Y-84061509D01*
X143905340Y-84215340D01*
X143812883Y-84328000D01*
X143207117Y-84328000D01*
X143114660Y-84215340D01*
X142927216Y-84061509D01*
X142713363Y-83947202D01*
X142481318Y-83876812D01*
X142300472Y-83859000D01*
X142179528Y-83859000D01*
X141998682Y-83876812D01*
X141766637Y-83947202D01*
X141552784Y-84061509D01*
X141365340Y-84215340D01*
X141272883Y-84328000D01*
X110986243Y-84328000D01*
X110986243Y-84176500D01*
X110978887Y-84101811D01*
X110957101Y-84029992D01*
X110921722Y-83963804D01*
X110874111Y-83905789D01*
X110816096Y-83858178D01*
X110749908Y-83822799D01*
X110678089Y-83801013D01*
X110603400Y-83793657D01*
X108903400Y-83793657D01*
X108828711Y-83801013D01*
X108756892Y-83822799D01*
X108690704Y-83858178D01*
X108632689Y-83905789D01*
X108585078Y-83963804D01*
X108549699Y-84029992D01*
X108527913Y-84101811D01*
X108520557Y-84176500D01*
X108520557Y-84328000D01*
X108232630Y-84328000D01*
X108088060Y-84151840D01*
X107900616Y-83998009D01*
X107686763Y-83883702D01*
X107454718Y-83813312D01*
X107273872Y-83795500D01*
X107152928Y-83795500D01*
X106972082Y-83813312D01*
X106740037Y-83883702D01*
X106526184Y-83998009D01*
X106451000Y-84059711D01*
X106451000Y-83453289D01*
X106526184Y-83514991D01*
X106740037Y-83629298D01*
X106972082Y-83699688D01*
X107152928Y-83717500D01*
X107273872Y-83717500D01*
X107454718Y-83699688D01*
X107686763Y-83629298D01*
X107900616Y-83514991D01*
X108088060Y-83361160D01*
X108241891Y-83173716D01*
X108356198Y-82959863D01*
X108426588Y-82727818D01*
X108450356Y-82486500D01*
X108516444Y-82486500D01*
X108540212Y-82727818D01*
X108610602Y-82959863D01*
X108724909Y-83173716D01*
X108878740Y-83361160D01*
X109066184Y-83514991D01*
X109280037Y-83629298D01*
X109512082Y-83699688D01*
X109692928Y-83717500D01*
X109813872Y-83717500D01*
X109994718Y-83699688D01*
X110226763Y-83629298D01*
X110440616Y-83514991D01*
X110628060Y-83361160D01*
X110781891Y-83173716D01*
X110896198Y-82959863D01*
X110966588Y-82727818D01*
X110984101Y-82550000D01*
X141003044Y-82550000D01*
X141026812Y-82791318D01*
X141097202Y-83023363D01*
X141211509Y-83237216D01*
X141365340Y-83424660D01*
X141552784Y-83578491D01*
X141766637Y-83692798D01*
X141998682Y-83763188D01*
X142179528Y-83781000D01*
X142300472Y-83781000D01*
X142481318Y-83763188D01*
X142713363Y-83692798D01*
X142927216Y-83578491D01*
X143114660Y-83424660D01*
X143268491Y-83237216D01*
X143382798Y-83023363D01*
X143453188Y-82791318D01*
X143476956Y-82550000D01*
X143453188Y-82308682D01*
X143382798Y-82076637D01*
X143268491Y-81862784D01*
X143114660Y-81675340D01*
X142927216Y-81521509D01*
X142713363Y-81407202D01*
X142481318Y-81336812D01*
X142300472Y-81319000D01*
X142179528Y-81319000D01*
X141998682Y-81336812D01*
X141766637Y-81407202D01*
X141552784Y-81521509D01*
X141365340Y-81675340D01*
X141211509Y-81862784D01*
X141097202Y-82076637D01*
X141026812Y-82308682D01*
X141003044Y-82550000D01*
X110984101Y-82550000D01*
X110990356Y-82486500D01*
X110966588Y-82245182D01*
X110896198Y-82013137D01*
X110781891Y-81799284D01*
X110628060Y-81611840D01*
X110440616Y-81458009D01*
X110226763Y-81343702D01*
X109994718Y-81273312D01*
X109813872Y-81255500D01*
X109692928Y-81255500D01*
X109512082Y-81273312D01*
X109280037Y-81343702D01*
X109066184Y-81458009D01*
X108878740Y-81611840D01*
X108724909Y-81799284D01*
X108610602Y-82013137D01*
X108540212Y-82245182D01*
X108516444Y-82486500D01*
X108450356Y-82486500D01*
X108426588Y-82245182D01*
X108356198Y-82013137D01*
X108241891Y-81799284D01*
X108088060Y-81611840D01*
X107900616Y-81458009D01*
X107686763Y-81343702D01*
X107454718Y-81273312D01*
X107273872Y-81255500D01*
X107152928Y-81255500D01*
X106972082Y-81273312D01*
X106740037Y-81343702D01*
X106526184Y-81458009D01*
X106451000Y-81519711D01*
X106451000Y-80913289D01*
X106526184Y-80974991D01*
X106740037Y-81089298D01*
X106972082Y-81159688D01*
X107152928Y-81177500D01*
X107273872Y-81177500D01*
X107454718Y-81159688D01*
X107686763Y-81089298D01*
X107900616Y-80974991D01*
X108088060Y-80821160D01*
X108241891Y-80633716D01*
X108356198Y-80419863D01*
X108426588Y-80187818D01*
X108450356Y-79946500D01*
X108516444Y-79946500D01*
X108540212Y-80187818D01*
X108610602Y-80419863D01*
X108724909Y-80633716D01*
X108878740Y-80821160D01*
X109066184Y-80974991D01*
X109280037Y-81089298D01*
X109512082Y-81159688D01*
X109692928Y-81177500D01*
X109813872Y-81177500D01*
X109994718Y-81159688D01*
X110226763Y-81089298D01*
X110440616Y-80974991D01*
X110628060Y-80821160D01*
X110781891Y-80633716D01*
X110896198Y-80419863D01*
X110966588Y-80187818D01*
X110984101Y-80010000D01*
X141003044Y-80010000D01*
X141026812Y-80251318D01*
X141097202Y-80483363D01*
X141211509Y-80697216D01*
X141365340Y-80884660D01*
X141552784Y-81038491D01*
X141766637Y-81152798D01*
X141998682Y-81223188D01*
X142179528Y-81241000D01*
X142300472Y-81241000D01*
X142481318Y-81223188D01*
X142713363Y-81152798D01*
X142927216Y-81038491D01*
X143114660Y-80884660D01*
X143268491Y-80697216D01*
X143382798Y-80483363D01*
X143453188Y-80251318D01*
X143476956Y-80010000D01*
X143453188Y-79768682D01*
X143382798Y-79536637D01*
X143268491Y-79322784D01*
X143114660Y-79135340D01*
X142927216Y-78981509D01*
X142713363Y-78867202D01*
X142481318Y-78796812D01*
X142300472Y-78779000D01*
X142179528Y-78779000D01*
X141998682Y-78796812D01*
X141766637Y-78867202D01*
X141552784Y-78981509D01*
X141365340Y-79135340D01*
X141211509Y-79322784D01*
X141097202Y-79536637D01*
X141026812Y-79768682D01*
X141003044Y-80010000D01*
X110984101Y-80010000D01*
X110990356Y-79946500D01*
X110966588Y-79705182D01*
X110896198Y-79473137D01*
X110781891Y-79259284D01*
X110628060Y-79071840D01*
X110440616Y-78918009D01*
X110226763Y-78803702D01*
X109994718Y-78733312D01*
X109813872Y-78715500D01*
X109692928Y-78715500D01*
X109512082Y-78733312D01*
X109280037Y-78803702D01*
X109066184Y-78918009D01*
X108878740Y-79071840D01*
X108724909Y-79259284D01*
X108610602Y-79473137D01*
X108540212Y-79705182D01*
X108516444Y-79946500D01*
X108450356Y-79946500D01*
X108426588Y-79705182D01*
X108356198Y-79473137D01*
X108241891Y-79259284D01*
X108088060Y-79071840D01*
X107900616Y-78918009D01*
X107686763Y-78803702D01*
X107454718Y-78733312D01*
X107273872Y-78715500D01*
X107152928Y-78715500D01*
X106972082Y-78733312D01*
X106740037Y-78803702D01*
X106526184Y-78918009D01*
X106451000Y-78979711D01*
X106451000Y-78373289D01*
X106526184Y-78434991D01*
X106740037Y-78549298D01*
X106972082Y-78619688D01*
X107152928Y-78637500D01*
X107273872Y-78637500D01*
X107454718Y-78619688D01*
X107686763Y-78549298D01*
X107900616Y-78434991D01*
X108088060Y-78281160D01*
X108241891Y-78093716D01*
X108356198Y-77879863D01*
X108426588Y-77647818D01*
X108450356Y-77406500D01*
X108516444Y-77406500D01*
X108540212Y-77647818D01*
X108610602Y-77879863D01*
X108724909Y-78093716D01*
X108878740Y-78281160D01*
X109066184Y-78434991D01*
X109280037Y-78549298D01*
X109512082Y-78619688D01*
X109692928Y-78637500D01*
X109813872Y-78637500D01*
X109994718Y-78619688D01*
X110226763Y-78549298D01*
X110440616Y-78434991D01*
X110628060Y-78281160D01*
X110781891Y-78093716D01*
X110896198Y-77879863D01*
X110966588Y-77647818D01*
X110990356Y-77406500D01*
X110966588Y-77165182D01*
X110896198Y-76933137D01*
X110781891Y-76719284D01*
X110628060Y-76531840D01*
X110440616Y-76378009D01*
X110226763Y-76263702D01*
X109994718Y-76193312D01*
X109813872Y-76175500D01*
X109692928Y-76175500D01*
X109512082Y-76193312D01*
X109280037Y-76263702D01*
X109066184Y-76378009D01*
X108878740Y-76531840D01*
X108724909Y-76719284D01*
X108610602Y-76933137D01*
X108540212Y-77165182D01*
X108516444Y-77406500D01*
X108450356Y-77406500D01*
X108426588Y-77165182D01*
X108356198Y-76933137D01*
X108241891Y-76719284D01*
X108088060Y-76531840D01*
X107900616Y-76378009D01*
X107686763Y-76263702D01*
X107454718Y-76193312D01*
X107273872Y-76175500D01*
X107152928Y-76175500D01*
X106972082Y-76193312D01*
X106740037Y-76263702D01*
X106526184Y-76378009D01*
X106451000Y-76439711D01*
X106451000Y-75833289D01*
X106526184Y-75894991D01*
X106740037Y-76009298D01*
X106972082Y-76079688D01*
X107152928Y-76097500D01*
X107273872Y-76097500D01*
X107454718Y-76079688D01*
X107686763Y-76009298D01*
X107900616Y-75894991D01*
X108088060Y-75741160D01*
X108241891Y-75553716D01*
X108356198Y-75339863D01*
X108426588Y-75107818D01*
X108450356Y-74866500D01*
X108516444Y-74866500D01*
X108540212Y-75107818D01*
X108610602Y-75339863D01*
X108724909Y-75553716D01*
X108878740Y-75741160D01*
X109066184Y-75894991D01*
X109280037Y-76009298D01*
X109512082Y-76079688D01*
X109692928Y-76097500D01*
X109813872Y-76097500D01*
X109994718Y-76079688D01*
X110226763Y-76009298D01*
X110440616Y-75894991D01*
X110628060Y-75741160D01*
X110781891Y-75553716D01*
X110896198Y-75339863D01*
X110966588Y-75107818D01*
X110990356Y-74866500D01*
X110966588Y-74625182D01*
X110896198Y-74393137D01*
X110781891Y-74179284D01*
X110628060Y-73991840D01*
X110440616Y-73838009D01*
X110226763Y-73723702D01*
X109994718Y-73653312D01*
X109813872Y-73635500D01*
X109692928Y-73635500D01*
X109512082Y-73653312D01*
X109280037Y-73723702D01*
X109066184Y-73838009D01*
X108878740Y-73991840D01*
X108724909Y-74179284D01*
X108610602Y-74393137D01*
X108540212Y-74625182D01*
X108516444Y-74866500D01*
X108450356Y-74866500D01*
X108426588Y-74625182D01*
X108356198Y-74393137D01*
X108241891Y-74179284D01*
X108088060Y-73991840D01*
X107900616Y-73838009D01*
X107686763Y-73723702D01*
X107454718Y-73653312D01*
X107273872Y-73635500D01*
X107152928Y-73635500D01*
X106972082Y-73653312D01*
X106740037Y-73723702D01*
X106526184Y-73838009D01*
X106451000Y-73899711D01*
X106451000Y-73293289D01*
X106526184Y-73354991D01*
X106740037Y-73469298D01*
X106972082Y-73539688D01*
X107152928Y-73557500D01*
X107273872Y-73557500D01*
X107454718Y-73539688D01*
X107686763Y-73469298D01*
X107900616Y-73354991D01*
X108088060Y-73201160D01*
X108241891Y-73013716D01*
X108356198Y-72799863D01*
X108426588Y-72567818D01*
X108450356Y-72326500D01*
X108516444Y-72326500D01*
X108540212Y-72567818D01*
X108610602Y-72799863D01*
X108724909Y-73013716D01*
X108878740Y-73201160D01*
X109066184Y-73354991D01*
X109280037Y-73469298D01*
X109512082Y-73539688D01*
X109692928Y-73557500D01*
X109813872Y-73557500D01*
X109994718Y-73539688D01*
X110226763Y-73469298D01*
X110440616Y-73354991D01*
X110628060Y-73201160D01*
X110781891Y-73013716D01*
X110896198Y-72799863D01*
X110966588Y-72567818D01*
X110990356Y-72326500D01*
X110966588Y-72085182D01*
X110896198Y-71853137D01*
X110781891Y-71639284D01*
X110628060Y-71451840D01*
X110440616Y-71298009D01*
X110226763Y-71183702D01*
X109994718Y-71113312D01*
X109813872Y-71095500D01*
X109692928Y-71095500D01*
X109512082Y-71113312D01*
X109280037Y-71183702D01*
X109066184Y-71298009D01*
X108878740Y-71451840D01*
X108724909Y-71639284D01*
X108610602Y-71853137D01*
X108540212Y-72085182D01*
X108516444Y-72326500D01*
X108450356Y-72326500D01*
X108426588Y-72085182D01*
X108356198Y-71853137D01*
X108241891Y-71639284D01*
X108088060Y-71451840D01*
X107900616Y-71298009D01*
X107686763Y-71183702D01*
X107454718Y-71113312D01*
X107273872Y-71095500D01*
X107152928Y-71095500D01*
X106972082Y-71113312D01*
X106740037Y-71183702D01*
X106526184Y-71298009D01*
X106451000Y-71359711D01*
X106451000Y-70753289D01*
X106526184Y-70814991D01*
X106740037Y-70929298D01*
X106972082Y-70999688D01*
X107152928Y-71017500D01*
X107273872Y-71017500D01*
X107454718Y-70999688D01*
X107686763Y-70929298D01*
X107900616Y-70814991D01*
X108088060Y-70661160D01*
X108241891Y-70473716D01*
X108356198Y-70259863D01*
X108426588Y-70027818D01*
X108450356Y-69786500D01*
X108516444Y-69786500D01*
X108540212Y-70027818D01*
X108610602Y-70259863D01*
X108724909Y-70473716D01*
X108878740Y-70661160D01*
X109066184Y-70814991D01*
X109280037Y-70929298D01*
X109512082Y-70999688D01*
X109692928Y-71017500D01*
X109813872Y-71017500D01*
X109994718Y-70999688D01*
X110226763Y-70929298D01*
X110440616Y-70814991D01*
X110628060Y-70661160D01*
X110781891Y-70473716D01*
X110896198Y-70259863D01*
X110966588Y-70027818D01*
X110990356Y-69786500D01*
X110966588Y-69545182D01*
X110896198Y-69313137D01*
X110781891Y-69099284D01*
X110628060Y-68911840D01*
X110440616Y-68758009D01*
X110226763Y-68643702D01*
X109994718Y-68573312D01*
X109813872Y-68555500D01*
X109692928Y-68555500D01*
X109512082Y-68573312D01*
X109280037Y-68643702D01*
X109066184Y-68758009D01*
X108878740Y-68911840D01*
X108724909Y-69099284D01*
X108610602Y-69313137D01*
X108540212Y-69545182D01*
X108516444Y-69786500D01*
X108450356Y-69786500D01*
X108426588Y-69545182D01*
X108356198Y-69313137D01*
X108241891Y-69099284D01*
X108088060Y-68911840D01*
X107900616Y-68758009D01*
X107686763Y-68643702D01*
X107454718Y-68573312D01*
X107273872Y-68555500D01*
X107152928Y-68555500D01*
X106972082Y-68573312D01*
X106740037Y-68643702D01*
X106526184Y-68758009D01*
X106451000Y-68819711D01*
X106451000Y-68213289D01*
X106526184Y-68274991D01*
X106740037Y-68389298D01*
X106972082Y-68459688D01*
X107152928Y-68477500D01*
X107273872Y-68477500D01*
X107454718Y-68459688D01*
X107686763Y-68389298D01*
X107900616Y-68274991D01*
X108088060Y-68121160D01*
X108241891Y-67933716D01*
X108356198Y-67719863D01*
X108426588Y-67487818D01*
X108450356Y-67246500D01*
X108516444Y-67246500D01*
X108540212Y-67487818D01*
X108610602Y-67719863D01*
X108724909Y-67933716D01*
X108878740Y-68121160D01*
X109066184Y-68274991D01*
X109280037Y-68389298D01*
X109512082Y-68459688D01*
X109692928Y-68477500D01*
X109813872Y-68477500D01*
X109994718Y-68459688D01*
X110226763Y-68389298D01*
X110440616Y-68274991D01*
X110628060Y-68121160D01*
X110781891Y-67933716D01*
X110896198Y-67719863D01*
X110966588Y-67487818D01*
X110990356Y-67246500D01*
X110966588Y-67005182D01*
X110896198Y-66773137D01*
X110781891Y-66559284D01*
X110628060Y-66371840D01*
X110440616Y-66218009D01*
X110226763Y-66103702D01*
X109994718Y-66033312D01*
X109813872Y-66015500D01*
X109692928Y-66015500D01*
X109512082Y-66033312D01*
X109280037Y-66103702D01*
X109066184Y-66218009D01*
X108878740Y-66371840D01*
X108724909Y-66559284D01*
X108610602Y-66773137D01*
X108540212Y-67005182D01*
X108516444Y-67246500D01*
X108450356Y-67246500D01*
X108426588Y-67005182D01*
X108356198Y-66773137D01*
X108241891Y-66559284D01*
X108088060Y-66371840D01*
X107900616Y-66218009D01*
X107686763Y-66103702D01*
X107454718Y-66033312D01*
X107273872Y-66015500D01*
X107152928Y-66015500D01*
X106972082Y-66033312D01*
X106740037Y-66103702D01*
X106526184Y-66218009D01*
X106451000Y-66279711D01*
X106451000Y-65673289D01*
X106526184Y-65734991D01*
X106740037Y-65849298D01*
X106972082Y-65919688D01*
X107152928Y-65937500D01*
X107273872Y-65937500D01*
X107454718Y-65919688D01*
X107686763Y-65849298D01*
X107900616Y-65734991D01*
X108088060Y-65581160D01*
X108241891Y-65393716D01*
X108356198Y-65179863D01*
X108426588Y-64947818D01*
X108450356Y-64706500D01*
X108426588Y-64465182D01*
X108356198Y-64233137D01*
X108241891Y-64019284D01*
X108088060Y-63831840D01*
X107900616Y-63678009D01*
X107686763Y-63563702D01*
X107454718Y-63493312D01*
X107273872Y-63475500D01*
X107152928Y-63475500D01*
X106972082Y-63493312D01*
X106740037Y-63563702D01*
X106526184Y-63678009D01*
X106451000Y-63739711D01*
X106451000Y-63133289D01*
X106526184Y-63194991D01*
X106740037Y-63309298D01*
X106972082Y-63379688D01*
X107152928Y-63397500D01*
X107273872Y-63397500D01*
X107454718Y-63379688D01*
X107686763Y-63309298D01*
X107900616Y-63194991D01*
X108088060Y-63041160D01*
X108241891Y-62853716D01*
X108356198Y-62639863D01*
X108426588Y-62407818D01*
X108450356Y-62166500D01*
X108426588Y-61925182D01*
X108356198Y-61693137D01*
X108241891Y-61479284D01*
X108088060Y-61291840D01*
X107900616Y-61138009D01*
X107686763Y-61023702D01*
X107454718Y-60953312D01*
X107273872Y-60935500D01*
X107152928Y-60935500D01*
X106972082Y-60953312D01*
X106740037Y-61023702D01*
X106526184Y-61138009D01*
X106451000Y-61199711D01*
X106451000Y-60593289D01*
X106526184Y-60654991D01*
X106740037Y-60769298D01*
X106972082Y-60839688D01*
X107152928Y-60857500D01*
X107273872Y-60857500D01*
X107454718Y-60839688D01*
X107686763Y-60769298D01*
X107900616Y-60654991D01*
X108088060Y-60501160D01*
X108241891Y-60313716D01*
X108356198Y-60099863D01*
X108426588Y-59867818D01*
X108450356Y-59626500D01*
X108426588Y-59385182D01*
X108356198Y-59153137D01*
X108241891Y-58939284D01*
X108088060Y-58751840D01*
X107900616Y-58598009D01*
X107686763Y-58483702D01*
X107454718Y-58413312D01*
X107273872Y-58395500D01*
X107152928Y-58395500D01*
X106972082Y-58413312D01*
X106740037Y-58483702D01*
X106526184Y-58598009D01*
X106451000Y-58659711D01*
X106451000Y-58319343D01*
X108063400Y-58319343D01*
X108138089Y-58311987D01*
X108209908Y-58290201D01*
X108276096Y-58254822D01*
X108334111Y-58207211D01*
X108381722Y-58149196D01*
X108417101Y-58083008D01*
X108438887Y-58011189D01*
X108446243Y-57936500D01*
X108446243Y-56236500D01*
X108438887Y-56161811D01*
X108417101Y-56089992D01*
X108381722Y-56023804D01*
X108334111Y-55965789D01*
X108276096Y-55918178D01*
X108209908Y-55882799D01*
X108138089Y-55861013D01*
X108063400Y-55853657D01*
X106451000Y-55853657D01*
X106451000Y-55524000D01*
X145644001Y-55524000D01*
X145644001Y-56266592D01*
X145644001Y-56266592D01*
G37*
X145644001Y-56266592D02*
X145467216Y-56121509D01*
X145253363Y-56007202D01*
X145021318Y-55936812D01*
X144840472Y-55919000D01*
X144719528Y-55919000D01*
X144538682Y-55936812D01*
X144306637Y-56007202D01*
X144092784Y-56121509D01*
X143905340Y-56275340D01*
X143751509Y-56462784D01*
X143637202Y-56676637D01*
X143566812Y-56908682D01*
X143543044Y-57150000D01*
X143566812Y-57391318D01*
X143637202Y-57623363D01*
X143751509Y-57837216D01*
X143905340Y-58024660D01*
X144092784Y-58178491D01*
X144306637Y-58292798D01*
X144538682Y-58363188D01*
X144719528Y-58381000D01*
X144840472Y-58381000D01*
X145021318Y-58363188D01*
X145253363Y-58292798D01*
X145467216Y-58178491D01*
X145644001Y-58033408D01*
X145644001Y-58806592D01*
X145467216Y-58661509D01*
X145253363Y-58547202D01*
X145021318Y-58476812D01*
X144840472Y-58459000D01*
X144719528Y-58459000D01*
X144538682Y-58476812D01*
X144306637Y-58547202D01*
X144092784Y-58661509D01*
X143905340Y-58815340D01*
X143751509Y-59002784D01*
X143637202Y-59216637D01*
X143566812Y-59448682D01*
X143543044Y-59690000D01*
X143566812Y-59931318D01*
X143637202Y-60163363D01*
X143751509Y-60377216D01*
X143905340Y-60564660D01*
X144092784Y-60718491D01*
X144306637Y-60832798D01*
X144538682Y-60903188D01*
X144719528Y-60921000D01*
X144840472Y-60921000D01*
X145021318Y-60903188D01*
X145253363Y-60832798D01*
X145467216Y-60718491D01*
X145644001Y-60573408D01*
X145644001Y-61346592D01*
X145467216Y-61201509D01*
X145253363Y-61087202D01*
X145021318Y-61016812D01*
X144840472Y-60999000D01*
X144719528Y-60999000D01*
X144538682Y-61016812D01*
X144306637Y-61087202D01*
X144092784Y-61201509D01*
X143905340Y-61355340D01*
X143751509Y-61542784D01*
X143637202Y-61756637D01*
X143566812Y-61988682D01*
X143543044Y-62230000D01*
X143566812Y-62471318D01*
X143637202Y-62703363D01*
X143751509Y-62917216D01*
X143905340Y-63104660D01*
X144092784Y-63258491D01*
X144306637Y-63372798D01*
X144538682Y-63443188D01*
X144719528Y-63461000D01*
X144840472Y-63461000D01*
X145021318Y-63443188D01*
X145253363Y-63372798D01*
X145467216Y-63258491D01*
X145644001Y-63113408D01*
X145644001Y-63886592D01*
X145467216Y-63741509D01*
X145253363Y-63627202D01*
X145021318Y-63556812D01*
X144840472Y-63539000D01*
X144719528Y-63539000D01*
X144538682Y-63556812D01*
X144342051Y-63616459D01*
X144270222Y-63544631D01*
X143980375Y-63254784D01*
X143964526Y-63235472D01*
X143887478Y-63172240D01*
X143799574Y-63125254D01*
X143704192Y-63096321D01*
X143629853Y-63088999D01*
X143629845Y-63088999D01*
X143604999Y-63086552D01*
X143580153Y-63088999D01*
X143127513Y-63088999D01*
X143268491Y-62917216D01*
X143382798Y-62703363D01*
X143453188Y-62471318D01*
X143476956Y-62230000D01*
X143453188Y-61988682D01*
X143382798Y-61756637D01*
X143268491Y-61542784D01*
X143114660Y-61355340D01*
X142927216Y-61201509D01*
X142713363Y-61087202D01*
X142481318Y-61016812D01*
X142300472Y-60999000D01*
X142179528Y-60999000D01*
X141998682Y-61016812D01*
X141802051Y-61076459D01*
X141765375Y-61039784D01*
X141765371Y-61039779D01*
X141255375Y-60529784D01*
X141239526Y-60510472D01*
X141162478Y-60447240D01*
X141074574Y-60400254D01*
X140979192Y-60371321D01*
X140904853Y-60363999D01*
X140904845Y-60363999D01*
X140879999Y-60361552D01*
X140855153Y-60363999D01*
X138219003Y-60363999D01*
X138387002Y-60196000D01*
X141114647Y-60196000D01*
X141211509Y-60377216D01*
X141365340Y-60564660D01*
X141552784Y-60718491D01*
X141766637Y-60832798D01*
X141998682Y-60903188D01*
X142179528Y-60921000D01*
X142300472Y-60921000D01*
X142481318Y-60903188D01*
X142713363Y-60832798D01*
X142927216Y-60718491D01*
X143114660Y-60564660D01*
X143268491Y-60377216D01*
X143382798Y-60163363D01*
X143453188Y-59931318D01*
X143476956Y-59690000D01*
X143453188Y-59448682D01*
X143382798Y-59216637D01*
X143268491Y-59002784D01*
X143114660Y-58815340D01*
X142927216Y-58661509D01*
X142713363Y-58547202D01*
X142481318Y-58476812D01*
X142300472Y-58459000D01*
X142179528Y-58459000D01*
X141998682Y-58476812D01*
X141766637Y-58547202D01*
X141552784Y-58661509D01*
X141365340Y-58815340D01*
X141211509Y-59002784D01*
X141114647Y-59184000D01*
X138762592Y-59184000D01*
X140290592Y-57656000D01*
X141007157Y-57656000D01*
X141007157Y-58000000D01*
X141014513Y-58074689D01*
X141036299Y-58146508D01*
X141071678Y-58212696D01*
X141119289Y-58270711D01*
X141177304Y-58318322D01*
X141243492Y-58353701D01*
X141315311Y-58375487D01*
X141390000Y-58382843D01*
X143090000Y-58382843D01*
X143164689Y-58375487D01*
X143236508Y-58353701D01*
X143302696Y-58318322D01*
X143360711Y-58270711D01*
X143408322Y-58212696D01*
X143443701Y-58146508D01*
X143465487Y-58074689D01*
X143472843Y-58000000D01*
X143472843Y-56300000D01*
X143465487Y-56225311D01*
X143443701Y-56153492D01*
X143408322Y-56087304D01*
X143360711Y-56029289D01*
X143302696Y-55981678D01*
X143236508Y-55946299D01*
X143164689Y-55924513D01*
X143090000Y-55917157D01*
X141390000Y-55917157D01*
X141315311Y-55924513D01*
X141243492Y-55946299D01*
X141177304Y-55981678D01*
X141119289Y-56029289D01*
X141071678Y-56087304D01*
X141036299Y-56153492D01*
X141014513Y-56225311D01*
X141007157Y-56300000D01*
X141007157Y-56644000D01*
X140105845Y-56644000D01*
X140080999Y-56641553D01*
X140056153Y-56644000D01*
X140056146Y-56644000D01*
X139991694Y-56650348D01*
X139981806Y-56651322D01*
X139959607Y-56658056D01*
X139886425Y-56680255D01*
X139798521Y-56727241D01*
X139721473Y-56790473D01*
X139705628Y-56809780D01*
X128345000Y-68170409D01*
X128345000Y-60347395D01*
X128347206Y-60324999D01*
X128346596Y-60318803D01*
X128370809Y-60313987D01*
X128512942Y-60255113D01*
X128640859Y-60169642D01*
X128749642Y-60060859D01*
X128835113Y-59932942D01*
X128893987Y-59790809D01*
X128924000Y-59639922D01*
X128924000Y-59486078D01*
X128893987Y-59335191D01*
X128835113Y-59193058D01*
X128749642Y-59065141D01*
X128640859Y-58956358D01*
X128512942Y-58870887D01*
X128370809Y-58812013D01*
X128219922Y-58782000D01*
X128066078Y-58782000D01*
X127915191Y-58812013D01*
X127773058Y-58870887D01*
X127645141Y-58956358D01*
X127536358Y-59065141D01*
X127450887Y-59193058D01*
X127392013Y-59335191D01*
X127362000Y-59486078D01*
X127362000Y-59639922D01*
X127371821Y-59689298D01*
X127328394Y-59732725D01*
X127311000Y-59747000D01*
X127296725Y-59764394D01*
X127296721Y-59764398D01*
X127254016Y-59816435D01*
X127211673Y-59895653D01*
X127185599Y-59981609D01*
X127176794Y-60071000D01*
X127185599Y-60160391D01*
X127211673Y-60246347D01*
X127254016Y-60325565D01*
X127296721Y-60377602D01*
X127296725Y-60377606D01*
X127311000Y-60395000D01*
X127328394Y-60409275D01*
X127433000Y-60513881D01*
X127433001Y-68518118D01*
X123255119Y-72696000D01*
X119506611Y-72696000D01*
X119478642Y-72654141D01*
X119369859Y-72545358D01*
X119241942Y-72459887D01*
X119099809Y-72401013D01*
X118948922Y-72371000D01*
X118795078Y-72371000D01*
X118644191Y-72401013D01*
X118502058Y-72459887D01*
X118374141Y-72545358D01*
X118265358Y-72654141D01*
X118179887Y-72782058D01*
X118121013Y-72924191D01*
X118091000Y-73075078D01*
X118091000Y-73228922D01*
X118121013Y-73379809D01*
X118179887Y-73521942D01*
X118265358Y-73649859D01*
X118374141Y-73758642D01*
X118502058Y-73844113D01*
X118644191Y-73902987D01*
X118795078Y-73933000D01*
X118948922Y-73933000D01*
X119099809Y-73902987D01*
X119241942Y-73844113D01*
X119260303Y-73831845D01*
X119234000Y-73964078D01*
X119234000Y-74117922D01*
X119264013Y-74268809D01*
X119322887Y-74410942D01*
X119408358Y-74538859D01*
X119517141Y-74647642D01*
X119645058Y-74733113D01*
X119787191Y-74791987D01*
X119938078Y-74822000D01*
X120091922Y-74822000D01*
X120242809Y-74791987D01*
X120384942Y-74733113D01*
X120512859Y-74647642D01*
X120621642Y-74538859D01*
X120707113Y-74410942D01*
X120765987Y-74268809D01*
X120790216Y-74147001D01*
X123565153Y-74147001D01*
X123589999Y-74149448D01*
X123614845Y-74147001D01*
X123614853Y-74147001D01*
X123689192Y-74139679D01*
X123784574Y-74110746D01*
X123872478Y-74063760D01*
X123949526Y-74000528D01*
X123965375Y-73981216D01*
X128526001Y-69420590D01*
X128526000Y-73188499D01*
X128425358Y-73289141D01*
X128339887Y-73417058D01*
X128281013Y-73559191D01*
X128251000Y-73710078D01*
X128251000Y-73863922D01*
X128281013Y-74014809D01*
X128292690Y-74043000D01*
X127979501Y-74043000D01*
X127878859Y-73942358D01*
X127750942Y-73856887D01*
X127608809Y-73798013D01*
X127457922Y-73768000D01*
X127304078Y-73768000D01*
X127153191Y-73798013D01*
X127011058Y-73856887D01*
X126883141Y-73942358D01*
X126774358Y-74051141D01*
X126688887Y-74179058D01*
X126630013Y-74321191D01*
X126600000Y-74472078D01*
X126600000Y-74625922D01*
X126630013Y-74776809D01*
X126688887Y-74918942D01*
X126731021Y-74982000D01*
X119148396Y-74982000D01*
X119126000Y-74979794D01*
X119103604Y-74982000D01*
X119103601Y-74982000D01*
X119036608Y-74988598D01*
X118950652Y-75014673D01*
X118871434Y-75057015D01*
X118842230Y-75080982D01*
X118801999Y-75113999D01*
X118787717Y-75131402D01*
X118184402Y-75734717D01*
X118166999Y-75748999D01*
X118110016Y-75818435D01*
X118067673Y-75897653D01*
X118041598Y-75983609D01*
X118035000Y-76050601D01*
X118032794Y-76073000D01*
X118035000Y-76095396D01*
X118035001Y-77851388D01*
X117993141Y-77879358D01*
X117884358Y-77988141D01*
X117798887Y-78116058D01*
X117740013Y-78258191D01*
X117710000Y-78409078D01*
X117710000Y-78562922D01*
X117740013Y-78713809D01*
X117798887Y-78855942D01*
X117884358Y-78983859D01*
X117993141Y-79092642D01*
X118121058Y-79178113D01*
X118263191Y-79236987D01*
X118414078Y-79267000D01*
X118567922Y-79267000D01*
X118718809Y-79236987D01*
X118860942Y-79178113D01*
X118988859Y-79092642D01*
X119097642Y-78983859D01*
X119183113Y-78855942D01*
X119241987Y-78713809D01*
X119272000Y-78562922D01*
X119272000Y-78409078D01*
X119241987Y-78258191D01*
X119183113Y-78116058D01*
X119097642Y-77988141D01*
X118988859Y-77879358D01*
X118947000Y-77851389D01*
X118947000Y-77470000D01*
X141003044Y-77470000D01*
X141026812Y-77711318D01*
X141097202Y-77943363D01*
X141211509Y-78157216D01*
X141365340Y-78344660D01*
X141552784Y-78498491D01*
X141766637Y-78612798D01*
X141998682Y-78683188D01*
X142179528Y-78701000D01*
X142300472Y-78701000D01*
X142481318Y-78683188D01*
X142713363Y-78612798D01*
X142927216Y-78498491D01*
X143114660Y-78344660D01*
X143268491Y-78157216D01*
X143382798Y-77943363D01*
X143453188Y-77711318D01*
X143476956Y-77470000D01*
X143453188Y-77228682D01*
X143382798Y-76996637D01*
X143268491Y-76782784D01*
X143114660Y-76595340D01*
X142927216Y-76441509D01*
X142713363Y-76327202D01*
X142481318Y-76256812D01*
X142300472Y-76239000D01*
X142179528Y-76239000D01*
X141998682Y-76256812D01*
X141766637Y-76327202D01*
X141552784Y-76441509D01*
X141365340Y-76595340D01*
X141211509Y-76782784D01*
X141097202Y-76996637D01*
X141026812Y-77228682D01*
X141003044Y-77470000D01*
X118947000Y-77470000D01*
X118947000Y-77333739D01*
X119089078Y-77362000D01*
X119242922Y-77362000D01*
X119393809Y-77331987D01*
X119535942Y-77273113D01*
X119663859Y-77187642D01*
X119772642Y-77078859D01*
X119800611Y-77037000D01*
X131676604Y-77037000D01*
X131699000Y-77039206D01*
X131721396Y-77037000D01*
X131721399Y-77037000D01*
X131788392Y-77030402D01*
X131874348Y-77004327D01*
X131953566Y-76961984D01*
X132023001Y-76905001D01*
X132037283Y-76887598D01*
X133994881Y-74930000D01*
X141003044Y-74930000D01*
X141026812Y-75171318D01*
X141097202Y-75403363D01*
X141211509Y-75617216D01*
X141365340Y-75804660D01*
X141552784Y-75958491D01*
X141766637Y-76072798D01*
X141998682Y-76143188D01*
X142179528Y-76161000D01*
X142300472Y-76161000D01*
X142481318Y-76143188D01*
X142713363Y-76072798D01*
X142927216Y-75958491D01*
X143114660Y-75804660D01*
X143268491Y-75617216D01*
X143382798Y-75403363D01*
X143453188Y-75171318D01*
X143476956Y-74930000D01*
X143453188Y-74688682D01*
X143382798Y-74456637D01*
X143268491Y-74242784D01*
X143114660Y-74055340D01*
X142927216Y-73901509D01*
X142713363Y-73787202D01*
X142481318Y-73716812D01*
X142300472Y-73699000D01*
X142179528Y-73699000D01*
X141998682Y-73716812D01*
X141766637Y-73787202D01*
X141552784Y-73901509D01*
X141365340Y-74055340D01*
X141211509Y-74242784D01*
X141097202Y-74456637D01*
X141026812Y-74688682D01*
X141003044Y-74930000D01*
X133994881Y-74930000D01*
X136398702Y-72526179D01*
X136448078Y-72536000D01*
X136601922Y-72536000D01*
X136752809Y-72505987D01*
X136894942Y-72447113D01*
X137022859Y-72361642D01*
X137131642Y-72252859D01*
X137217113Y-72124942D01*
X137275987Y-71982809D01*
X137306000Y-71831922D01*
X137306000Y-71678078D01*
X137275987Y-71527191D01*
X137217113Y-71385058D01*
X137131642Y-71257141D01*
X137022859Y-71148358D01*
X136894942Y-71062887D01*
X136752809Y-71004013D01*
X136601922Y-70974000D01*
X136448078Y-70974000D01*
X136297191Y-71004013D01*
X136155058Y-71062887D01*
X136027141Y-71148358D01*
X135918358Y-71257141D01*
X135832887Y-71385058D01*
X135774013Y-71527191D01*
X135744000Y-71678078D01*
X135744000Y-71831922D01*
X135753821Y-71881298D01*
X131510119Y-76125000D01*
X119800611Y-76125000D01*
X119772642Y-76083141D01*
X119663859Y-75974358D01*
X119543594Y-75894000D01*
X130787604Y-75894000D01*
X130810000Y-75896206D01*
X130832396Y-75894000D01*
X130832399Y-75894000D01*
X130899392Y-75887402D01*
X130985348Y-75861327D01*
X131064566Y-75818984D01*
X131134001Y-75762001D01*
X131148283Y-75744598D01*
X136398702Y-70494179D01*
X136448078Y-70504000D01*
X136601922Y-70504000D01*
X136752809Y-70473987D01*
X136894942Y-70415113D01*
X137022859Y-70329642D01*
X137131642Y-70220859D01*
X137217113Y-70092942D01*
X137275987Y-69950809D01*
X137306000Y-69799922D01*
X137306000Y-69646078D01*
X137275987Y-69495191D01*
X137217113Y-69353058D01*
X137131642Y-69225141D01*
X137022859Y-69116358D01*
X136894942Y-69030887D01*
X136752809Y-68972013D01*
X136601922Y-68942000D01*
X136448078Y-68942000D01*
X136297191Y-68972013D01*
X136155058Y-69030887D01*
X136027141Y-69116358D01*
X135918358Y-69225141D01*
X135832887Y-69353058D01*
X135774013Y-69495191D01*
X135744000Y-69646078D01*
X135744000Y-69799922D01*
X135753821Y-69849298D01*
X130621119Y-74982000D01*
X129606322Y-74982000D01*
X129625481Y-74971759D01*
X129702529Y-74908527D01*
X129718378Y-74889215D01*
X130318222Y-74289372D01*
X130337529Y-74273527D01*
X130400761Y-74196479D01*
X130447747Y-74108575D01*
X130476680Y-74013193D01*
X130484002Y-73938854D01*
X130484002Y-73938853D01*
X130486450Y-73914000D01*
X130484002Y-73889146D01*
X130484002Y-68735409D01*
X137420300Y-61799112D01*
X137425013Y-61822809D01*
X137483887Y-61964942D01*
X137569358Y-62092859D01*
X137678141Y-62201642D01*
X137806058Y-62287113D01*
X137948191Y-62345987D01*
X138099078Y-62376000D01*
X138241409Y-62376000D01*
X139800627Y-63935219D01*
X139816472Y-63954526D01*
X139893520Y-64017758D01*
X139981424Y-64064744D01*
X140076806Y-64093677D01*
X140175999Y-64103447D01*
X140200853Y-64100999D01*
X141201773Y-64100999D01*
X141097202Y-64296637D01*
X141026812Y-64528682D01*
X141003044Y-64770000D01*
X141026812Y-65011318D01*
X141097202Y-65243363D01*
X141211509Y-65457216D01*
X141365340Y-65644660D01*
X141552784Y-65798491D01*
X141763305Y-65911017D01*
X141608748Y-65965843D01*
X141358645Y-66114822D01*
X141142412Y-66309731D01*
X140968359Y-66543080D01*
X140843175Y-66805901D01*
X140798524Y-66953110D01*
X140919845Y-67183000D01*
X142113000Y-67183000D01*
X142113000Y-67163000D01*
X142367000Y-67163000D01*
X142367000Y-67183000D01*
X142387000Y-67183000D01*
X142387000Y-67437000D01*
X142367000Y-67437000D01*
X142367000Y-67457000D01*
X142113000Y-67457000D01*
X142113000Y-67437000D01*
X140919845Y-67437000D01*
X140798524Y-67666890D01*
X140843175Y-67814099D01*
X140968359Y-68076920D01*
X141142412Y-68310269D01*
X141358645Y-68505178D01*
X141608748Y-68654157D01*
X141763305Y-68708983D01*
X141552784Y-68821509D01*
X141365340Y-68975340D01*
X141211509Y-69162784D01*
X141097202Y-69376637D01*
X141026812Y-69608682D01*
X141003044Y-69850000D01*
X141026812Y-70091318D01*
X141097202Y-70323363D01*
X141211509Y-70537216D01*
X141365340Y-70724660D01*
X141552784Y-70878491D01*
X141766637Y-70992798D01*
X141998682Y-71063188D01*
X142179528Y-71081000D01*
X142300472Y-71081000D01*
X142481318Y-71063188D01*
X142713363Y-70992798D01*
X142927216Y-70878491D01*
X143114660Y-70724660D01*
X143268491Y-70537216D01*
X143382798Y-70323363D01*
X143453188Y-70091318D01*
X143476956Y-69850000D01*
X143453188Y-69608682D01*
X143382798Y-69376637D01*
X143268491Y-69162784D01*
X143114660Y-68975340D01*
X142927216Y-68821509D01*
X142716695Y-68708983D01*
X142871252Y-68654157D01*
X143121355Y-68505178D01*
X143337588Y-68310269D01*
X143511641Y-68076920D01*
X143636825Y-67814099D01*
X143642909Y-67794040D01*
X143751509Y-67997216D01*
X143905340Y-68184660D01*
X144092784Y-68338491D01*
X144306637Y-68452798D01*
X144538682Y-68523188D01*
X144719528Y-68541000D01*
X144840472Y-68541000D01*
X145021318Y-68523188D01*
X145253363Y-68452798D01*
X145467216Y-68338491D01*
X145644001Y-68193408D01*
X145644001Y-68966592D01*
X145467216Y-68821509D01*
X145253363Y-68707202D01*
X145021318Y-68636812D01*
X144840472Y-68619000D01*
X144719528Y-68619000D01*
X144538682Y-68636812D01*
X144306637Y-68707202D01*
X144092784Y-68821509D01*
X143905340Y-68975340D01*
X143751509Y-69162784D01*
X143637202Y-69376637D01*
X143566812Y-69608682D01*
X143543044Y-69850000D01*
X143566812Y-70091318D01*
X143637202Y-70323363D01*
X143751509Y-70537216D01*
X143905340Y-70724660D01*
X144092784Y-70878491D01*
X144303305Y-70991017D01*
X144148748Y-71045843D01*
X143898645Y-71194822D01*
X143682412Y-71389731D01*
X143508359Y-71623080D01*
X143383175Y-71885901D01*
X143377091Y-71905960D01*
X143268491Y-71702784D01*
X143114660Y-71515340D01*
X142927216Y-71361509D01*
X142713363Y-71247202D01*
X142481318Y-71176812D01*
X142300472Y-71159000D01*
X142179528Y-71159000D01*
X141998682Y-71176812D01*
X141766637Y-71247202D01*
X141552784Y-71361509D01*
X141365340Y-71515340D01*
X141211509Y-71702784D01*
X141097202Y-71916637D01*
X141026812Y-72148682D01*
X141003044Y-72390000D01*
X141026812Y-72631318D01*
X141097202Y-72863363D01*
X141211509Y-73077216D01*
X141365340Y-73264660D01*
X141552784Y-73418491D01*
X141766637Y-73532798D01*
X141998682Y-73603188D01*
X142179528Y-73621000D01*
X142300472Y-73621000D01*
X142481318Y-73603188D01*
X142713363Y-73532798D01*
X142927216Y-73418491D01*
X143114660Y-73264660D01*
X143268491Y-73077216D01*
X143377091Y-72874040D01*
X143383175Y-72894099D01*
X143508359Y-73156920D01*
X143682412Y-73390269D01*
X143898645Y-73585178D01*
X144148748Y-73734157D01*
X144303305Y-73788983D01*
X144092784Y-73901509D01*
X143905340Y-74055340D01*
X143751509Y-74242784D01*
X143637202Y-74456637D01*
X143566812Y-74688682D01*
X143543044Y-74930000D01*
X143566812Y-75171318D01*
X143637202Y-75403363D01*
X143751509Y-75617216D01*
X143905340Y-75804660D01*
X144092784Y-75958491D01*
X144306637Y-76072798D01*
X144538682Y-76143188D01*
X144719528Y-76161000D01*
X144840472Y-76161000D01*
X145021318Y-76143188D01*
X145253363Y-76072798D01*
X145467216Y-75958491D01*
X145644000Y-75813408D01*
X145644000Y-76586592D01*
X145467216Y-76441509D01*
X145253363Y-76327202D01*
X145021318Y-76256812D01*
X144840472Y-76239000D01*
X144719528Y-76239000D01*
X144538682Y-76256812D01*
X144306637Y-76327202D01*
X144092784Y-76441509D01*
X143905340Y-76595340D01*
X143751509Y-76782784D01*
X143637202Y-76996637D01*
X143566812Y-77228682D01*
X143543044Y-77470000D01*
X143566812Y-77711318D01*
X143637202Y-77943363D01*
X143751509Y-78157216D01*
X143905340Y-78344660D01*
X144092784Y-78498491D01*
X144306637Y-78612798D01*
X144538682Y-78683188D01*
X144719528Y-78701000D01*
X144840472Y-78701000D01*
X145021318Y-78683188D01*
X145253363Y-78612798D01*
X145467216Y-78498491D01*
X145644000Y-78353408D01*
X145644000Y-79126592D01*
X145467216Y-78981509D01*
X145253363Y-78867202D01*
X145021318Y-78796812D01*
X144840472Y-78779000D01*
X144719528Y-78779000D01*
X144538682Y-78796812D01*
X144306637Y-78867202D01*
X144092784Y-78981509D01*
X143905340Y-79135340D01*
X143751509Y-79322784D01*
X143637202Y-79536637D01*
X143566812Y-79768682D01*
X143543044Y-80010000D01*
X143566812Y-80251318D01*
X143637202Y-80483363D01*
X143751509Y-80697216D01*
X143905340Y-80884660D01*
X144092784Y-81038491D01*
X144306637Y-81152798D01*
X144538682Y-81223188D01*
X144719528Y-81241000D01*
X144840472Y-81241000D01*
X145021318Y-81223188D01*
X145253363Y-81152798D01*
X145467216Y-81038491D01*
X145644000Y-80893408D01*
X145644000Y-81666592D01*
X145467216Y-81521509D01*
X145253363Y-81407202D01*
X145021318Y-81336812D01*
X144840472Y-81319000D01*
X144719528Y-81319000D01*
X144538682Y-81336812D01*
X144306637Y-81407202D01*
X144092784Y-81521509D01*
X143905340Y-81675340D01*
X143751509Y-81862784D01*
X143637202Y-82076637D01*
X143566812Y-82308682D01*
X143543044Y-82550000D01*
X143566812Y-82791318D01*
X143637202Y-83023363D01*
X143751509Y-83237216D01*
X143905340Y-83424660D01*
X144092784Y-83578491D01*
X144306637Y-83692798D01*
X144538682Y-83763188D01*
X144719528Y-83781000D01*
X144840472Y-83781000D01*
X145021318Y-83763188D01*
X145253363Y-83692798D01*
X145467216Y-83578491D01*
X145644000Y-83433408D01*
X145644000Y-84206592D01*
X145467216Y-84061509D01*
X145253363Y-83947202D01*
X145021318Y-83876812D01*
X144840472Y-83859000D01*
X144719528Y-83859000D01*
X144538682Y-83876812D01*
X144306637Y-83947202D01*
X144092784Y-84061509D01*
X143905340Y-84215340D01*
X143812883Y-84328000D01*
X143207117Y-84328000D01*
X143114660Y-84215340D01*
X142927216Y-84061509D01*
X142713363Y-83947202D01*
X142481318Y-83876812D01*
X142300472Y-83859000D01*
X142179528Y-83859000D01*
X141998682Y-83876812D01*
X141766637Y-83947202D01*
X141552784Y-84061509D01*
X141365340Y-84215340D01*
X141272883Y-84328000D01*
X110986243Y-84328000D01*
X110986243Y-84176500D01*
X110978887Y-84101811D01*
X110957101Y-84029992D01*
X110921722Y-83963804D01*
X110874111Y-83905789D01*
X110816096Y-83858178D01*
X110749908Y-83822799D01*
X110678089Y-83801013D01*
X110603400Y-83793657D01*
X108903400Y-83793657D01*
X108828711Y-83801013D01*
X108756892Y-83822799D01*
X108690704Y-83858178D01*
X108632689Y-83905789D01*
X108585078Y-83963804D01*
X108549699Y-84029992D01*
X108527913Y-84101811D01*
X108520557Y-84176500D01*
X108520557Y-84328000D01*
X108232630Y-84328000D01*
X108088060Y-84151840D01*
X107900616Y-83998009D01*
X107686763Y-83883702D01*
X107454718Y-83813312D01*
X107273872Y-83795500D01*
X107152928Y-83795500D01*
X106972082Y-83813312D01*
X106740037Y-83883702D01*
X106526184Y-83998009D01*
X106451000Y-84059711D01*
X106451000Y-83453289D01*
X106526184Y-83514991D01*
X106740037Y-83629298D01*
X106972082Y-83699688D01*
X107152928Y-83717500D01*
X107273872Y-83717500D01*
X107454718Y-83699688D01*
X107686763Y-83629298D01*
X107900616Y-83514991D01*
X108088060Y-83361160D01*
X108241891Y-83173716D01*
X108356198Y-82959863D01*
X108426588Y-82727818D01*
X108450356Y-82486500D01*
X108516444Y-82486500D01*
X108540212Y-82727818D01*
X108610602Y-82959863D01*
X108724909Y-83173716D01*
X108878740Y-83361160D01*
X109066184Y-83514991D01*
X109280037Y-83629298D01*
X109512082Y-83699688D01*
X109692928Y-83717500D01*
X109813872Y-83717500D01*
X109994718Y-83699688D01*
X110226763Y-83629298D01*
X110440616Y-83514991D01*
X110628060Y-83361160D01*
X110781891Y-83173716D01*
X110896198Y-82959863D01*
X110966588Y-82727818D01*
X110984101Y-82550000D01*
X141003044Y-82550000D01*
X141026812Y-82791318D01*
X141097202Y-83023363D01*
X141211509Y-83237216D01*
X141365340Y-83424660D01*
X141552784Y-83578491D01*
X141766637Y-83692798D01*
X141998682Y-83763188D01*
X142179528Y-83781000D01*
X142300472Y-83781000D01*
X142481318Y-83763188D01*
X142713363Y-83692798D01*
X142927216Y-83578491D01*
X143114660Y-83424660D01*
X143268491Y-83237216D01*
X143382798Y-83023363D01*
X143453188Y-82791318D01*
X143476956Y-82550000D01*
X143453188Y-82308682D01*
X143382798Y-82076637D01*
X143268491Y-81862784D01*
X143114660Y-81675340D01*
X142927216Y-81521509D01*
X142713363Y-81407202D01*
X142481318Y-81336812D01*
X142300472Y-81319000D01*
X142179528Y-81319000D01*
X141998682Y-81336812D01*
X141766637Y-81407202D01*
X141552784Y-81521509D01*
X141365340Y-81675340D01*
X141211509Y-81862784D01*
X141097202Y-82076637D01*
X141026812Y-82308682D01*
X141003044Y-82550000D01*
X110984101Y-82550000D01*
X110990356Y-82486500D01*
X110966588Y-82245182D01*
X110896198Y-82013137D01*
X110781891Y-81799284D01*
X110628060Y-81611840D01*
X110440616Y-81458009D01*
X110226763Y-81343702D01*
X109994718Y-81273312D01*
X109813872Y-81255500D01*
X109692928Y-81255500D01*
X109512082Y-81273312D01*
X109280037Y-81343702D01*
X109066184Y-81458009D01*
X108878740Y-81611840D01*
X108724909Y-81799284D01*
X108610602Y-82013137D01*
X108540212Y-82245182D01*
X108516444Y-82486500D01*
X108450356Y-82486500D01*
X108426588Y-82245182D01*
X108356198Y-82013137D01*
X108241891Y-81799284D01*
X108088060Y-81611840D01*
X107900616Y-81458009D01*
X107686763Y-81343702D01*
X107454718Y-81273312D01*
X107273872Y-81255500D01*
X107152928Y-81255500D01*
X106972082Y-81273312D01*
X106740037Y-81343702D01*
X106526184Y-81458009D01*
X106451000Y-81519711D01*
X106451000Y-80913289D01*
X106526184Y-80974991D01*
X106740037Y-81089298D01*
X106972082Y-81159688D01*
X107152928Y-81177500D01*
X107273872Y-81177500D01*
X107454718Y-81159688D01*
X107686763Y-81089298D01*
X107900616Y-80974991D01*
X108088060Y-80821160D01*
X108241891Y-80633716D01*
X108356198Y-80419863D01*
X108426588Y-80187818D01*
X108450356Y-79946500D01*
X108516444Y-79946500D01*
X108540212Y-80187818D01*
X108610602Y-80419863D01*
X108724909Y-80633716D01*
X108878740Y-80821160D01*
X109066184Y-80974991D01*
X109280037Y-81089298D01*
X109512082Y-81159688D01*
X109692928Y-81177500D01*
X109813872Y-81177500D01*
X109994718Y-81159688D01*
X110226763Y-81089298D01*
X110440616Y-80974991D01*
X110628060Y-80821160D01*
X110781891Y-80633716D01*
X110896198Y-80419863D01*
X110966588Y-80187818D01*
X110984101Y-80010000D01*
X141003044Y-80010000D01*
X141026812Y-80251318D01*
X141097202Y-80483363D01*
X141211509Y-80697216D01*
X141365340Y-80884660D01*
X141552784Y-81038491D01*
X141766637Y-81152798D01*
X141998682Y-81223188D01*
X142179528Y-81241000D01*
X142300472Y-81241000D01*
X142481318Y-81223188D01*
X142713363Y-81152798D01*
X142927216Y-81038491D01*
X143114660Y-80884660D01*
X143268491Y-80697216D01*
X143382798Y-80483363D01*
X143453188Y-80251318D01*
X143476956Y-80010000D01*
X143453188Y-79768682D01*
X143382798Y-79536637D01*
X143268491Y-79322784D01*
X143114660Y-79135340D01*
X142927216Y-78981509D01*
X142713363Y-78867202D01*
X142481318Y-78796812D01*
X142300472Y-78779000D01*
X142179528Y-78779000D01*
X141998682Y-78796812D01*
X141766637Y-78867202D01*
X141552784Y-78981509D01*
X141365340Y-79135340D01*
X141211509Y-79322784D01*
X141097202Y-79536637D01*
X141026812Y-79768682D01*
X141003044Y-80010000D01*
X110984101Y-80010000D01*
X110990356Y-79946500D01*
X110966588Y-79705182D01*
X110896198Y-79473137D01*
X110781891Y-79259284D01*
X110628060Y-79071840D01*
X110440616Y-78918009D01*
X110226763Y-78803702D01*
X109994718Y-78733312D01*
X109813872Y-78715500D01*
X109692928Y-78715500D01*
X109512082Y-78733312D01*
X109280037Y-78803702D01*
X109066184Y-78918009D01*
X108878740Y-79071840D01*
X108724909Y-79259284D01*
X108610602Y-79473137D01*
X108540212Y-79705182D01*
X108516444Y-79946500D01*
X108450356Y-79946500D01*
X108426588Y-79705182D01*
X108356198Y-79473137D01*
X108241891Y-79259284D01*
X108088060Y-79071840D01*
X107900616Y-78918009D01*
X107686763Y-78803702D01*
X107454718Y-78733312D01*
X107273872Y-78715500D01*
X107152928Y-78715500D01*
X106972082Y-78733312D01*
X106740037Y-78803702D01*
X106526184Y-78918009D01*
X106451000Y-78979711D01*
X106451000Y-78373289D01*
X106526184Y-78434991D01*
X106740037Y-78549298D01*
X106972082Y-78619688D01*
X107152928Y-78637500D01*
X107273872Y-78637500D01*
X107454718Y-78619688D01*
X107686763Y-78549298D01*
X107900616Y-78434991D01*
X108088060Y-78281160D01*
X108241891Y-78093716D01*
X108356198Y-77879863D01*
X108426588Y-77647818D01*
X108450356Y-77406500D01*
X108516444Y-77406500D01*
X108540212Y-77647818D01*
X108610602Y-77879863D01*
X108724909Y-78093716D01*
X108878740Y-78281160D01*
X109066184Y-78434991D01*
X109280037Y-78549298D01*
X109512082Y-78619688D01*
X109692928Y-78637500D01*
X109813872Y-78637500D01*
X109994718Y-78619688D01*
X110226763Y-78549298D01*
X110440616Y-78434991D01*
X110628060Y-78281160D01*
X110781891Y-78093716D01*
X110896198Y-77879863D01*
X110966588Y-77647818D01*
X110990356Y-77406500D01*
X110966588Y-77165182D01*
X110896198Y-76933137D01*
X110781891Y-76719284D01*
X110628060Y-76531840D01*
X110440616Y-76378009D01*
X110226763Y-76263702D01*
X109994718Y-76193312D01*
X109813872Y-76175500D01*
X109692928Y-76175500D01*
X109512082Y-76193312D01*
X109280037Y-76263702D01*
X109066184Y-76378009D01*
X108878740Y-76531840D01*
X108724909Y-76719284D01*
X108610602Y-76933137D01*
X108540212Y-77165182D01*
X108516444Y-77406500D01*
X108450356Y-77406500D01*
X108426588Y-77165182D01*
X108356198Y-76933137D01*
X108241891Y-76719284D01*
X108088060Y-76531840D01*
X107900616Y-76378009D01*
X107686763Y-76263702D01*
X107454718Y-76193312D01*
X107273872Y-76175500D01*
X107152928Y-76175500D01*
X106972082Y-76193312D01*
X106740037Y-76263702D01*
X106526184Y-76378009D01*
X106451000Y-76439711D01*
X106451000Y-75833289D01*
X106526184Y-75894991D01*
X106740037Y-76009298D01*
X106972082Y-76079688D01*
X107152928Y-76097500D01*
X107273872Y-76097500D01*
X107454718Y-76079688D01*
X107686763Y-76009298D01*
X107900616Y-75894991D01*
X108088060Y-75741160D01*
X108241891Y-75553716D01*
X108356198Y-75339863D01*
X108426588Y-75107818D01*
X108450356Y-74866500D01*
X108516444Y-74866500D01*
X108540212Y-75107818D01*
X108610602Y-75339863D01*
X108724909Y-75553716D01*
X108878740Y-75741160D01*
X109066184Y-75894991D01*
X109280037Y-76009298D01*
X109512082Y-76079688D01*
X109692928Y-76097500D01*
X109813872Y-76097500D01*
X109994718Y-76079688D01*
X110226763Y-76009298D01*
X110440616Y-75894991D01*
X110628060Y-75741160D01*
X110781891Y-75553716D01*
X110896198Y-75339863D01*
X110966588Y-75107818D01*
X110990356Y-74866500D01*
X110966588Y-74625182D01*
X110896198Y-74393137D01*
X110781891Y-74179284D01*
X110628060Y-73991840D01*
X110440616Y-73838009D01*
X110226763Y-73723702D01*
X109994718Y-73653312D01*
X109813872Y-73635500D01*
X109692928Y-73635500D01*
X109512082Y-73653312D01*
X109280037Y-73723702D01*
X109066184Y-73838009D01*
X108878740Y-73991840D01*
X108724909Y-74179284D01*
X108610602Y-74393137D01*
X108540212Y-74625182D01*
X108516444Y-74866500D01*
X108450356Y-74866500D01*
X108426588Y-74625182D01*
X108356198Y-74393137D01*
X108241891Y-74179284D01*
X108088060Y-73991840D01*
X107900616Y-73838009D01*
X107686763Y-73723702D01*
X107454718Y-73653312D01*
X107273872Y-73635500D01*
X107152928Y-73635500D01*
X106972082Y-73653312D01*
X106740037Y-73723702D01*
X106526184Y-73838009D01*
X106451000Y-73899711D01*
X106451000Y-73293289D01*
X106526184Y-73354991D01*
X106740037Y-73469298D01*
X106972082Y-73539688D01*
X107152928Y-73557500D01*
X107273872Y-73557500D01*
X107454718Y-73539688D01*
X107686763Y-73469298D01*
X107900616Y-73354991D01*
X108088060Y-73201160D01*
X108241891Y-73013716D01*
X108356198Y-72799863D01*
X108426588Y-72567818D01*
X108450356Y-72326500D01*
X108516444Y-72326500D01*
X108540212Y-72567818D01*
X108610602Y-72799863D01*
X108724909Y-73013716D01*
X108878740Y-73201160D01*
X109066184Y-73354991D01*
X109280037Y-73469298D01*
X109512082Y-73539688D01*
X109692928Y-73557500D01*
X109813872Y-73557500D01*
X109994718Y-73539688D01*
X110226763Y-73469298D01*
X110440616Y-73354991D01*
X110628060Y-73201160D01*
X110781891Y-73013716D01*
X110896198Y-72799863D01*
X110966588Y-72567818D01*
X110990356Y-72326500D01*
X110966588Y-72085182D01*
X110896198Y-71853137D01*
X110781891Y-71639284D01*
X110628060Y-71451840D01*
X110440616Y-71298009D01*
X110226763Y-71183702D01*
X109994718Y-71113312D01*
X109813872Y-71095500D01*
X109692928Y-71095500D01*
X109512082Y-71113312D01*
X109280037Y-71183702D01*
X109066184Y-71298009D01*
X108878740Y-71451840D01*
X108724909Y-71639284D01*
X108610602Y-71853137D01*
X108540212Y-72085182D01*
X108516444Y-72326500D01*
X108450356Y-72326500D01*
X108426588Y-72085182D01*
X108356198Y-71853137D01*
X108241891Y-71639284D01*
X108088060Y-71451840D01*
X107900616Y-71298009D01*
X107686763Y-71183702D01*
X107454718Y-71113312D01*
X107273872Y-71095500D01*
X107152928Y-71095500D01*
X106972082Y-71113312D01*
X106740037Y-71183702D01*
X106526184Y-71298009D01*
X106451000Y-71359711D01*
X106451000Y-70753289D01*
X106526184Y-70814991D01*
X106740037Y-70929298D01*
X106972082Y-70999688D01*
X107152928Y-71017500D01*
X107273872Y-71017500D01*
X107454718Y-70999688D01*
X107686763Y-70929298D01*
X107900616Y-70814991D01*
X108088060Y-70661160D01*
X108241891Y-70473716D01*
X108356198Y-70259863D01*
X108426588Y-70027818D01*
X108450356Y-69786500D01*
X108516444Y-69786500D01*
X108540212Y-70027818D01*
X108610602Y-70259863D01*
X108724909Y-70473716D01*
X108878740Y-70661160D01*
X109066184Y-70814991D01*
X109280037Y-70929298D01*
X109512082Y-70999688D01*
X109692928Y-71017500D01*
X109813872Y-71017500D01*
X109994718Y-70999688D01*
X110226763Y-70929298D01*
X110440616Y-70814991D01*
X110628060Y-70661160D01*
X110781891Y-70473716D01*
X110896198Y-70259863D01*
X110966588Y-70027818D01*
X110990356Y-69786500D01*
X110966588Y-69545182D01*
X110896198Y-69313137D01*
X110781891Y-69099284D01*
X110628060Y-68911840D01*
X110440616Y-68758009D01*
X110226763Y-68643702D01*
X109994718Y-68573312D01*
X109813872Y-68555500D01*
X109692928Y-68555500D01*
X109512082Y-68573312D01*
X109280037Y-68643702D01*
X109066184Y-68758009D01*
X108878740Y-68911840D01*
X108724909Y-69099284D01*
X108610602Y-69313137D01*
X108540212Y-69545182D01*
X108516444Y-69786500D01*
X108450356Y-69786500D01*
X108426588Y-69545182D01*
X108356198Y-69313137D01*
X108241891Y-69099284D01*
X108088060Y-68911840D01*
X107900616Y-68758009D01*
X107686763Y-68643702D01*
X107454718Y-68573312D01*
X107273872Y-68555500D01*
X107152928Y-68555500D01*
X106972082Y-68573312D01*
X106740037Y-68643702D01*
X106526184Y-68758009D01*
X106451000Y-68819711D01*
X106451000Y-68213289D01*
X106526184Y-68274991D01*
X106740037Y-68389298D01*
X106972082Y-68459688D01*
X107152928Y-68477500D01*
X107273872Y-68477500D01*
X107454718Y-68459688D01*
X107686763Y-68389298D01*
X107900616Y-68274991D01*
X108088060Y-68121160D01*
X108241891Y-67933716D01*
X108356198Y-67719863D01*
X108426588Y-67487818D01*
X108450356Y-67246500D01*
X108516444Y-67246500D01*
X108540212Y-67487818D01*
X108610602Y-67719863D01*
X108724909Y-67933716D01*
X108878740Y-68121160D01*
X109066184Y-68274991D01*
X109280037Y-68389298D01*
X109512082Y-68459688D01*
X109692928Y-68477500D01*
X109813872Y-68477500D01*
X109994718Y-68459688D01*
X110226763Y-68389298D01*
X110440616Y-68274991D01*
X110628060Y-68121160D01*
X110781891Y-67933716D01*
X110896198Y-67719863D01*
X110966588Y-67487818D01*
X110990356Y-67246500D01*
X110966588Y-67005182D01*
X110896198Y-66773137D01*
X110781891Y-66559284D01*
X110628060Y-66371840D01*
X110440616Y-66218009D01*
X110226763Y-66103702D01*
X109994718Y-66033312D01*
X109813872Y-66015500D01*
X109692928Y-66015500D01*
X109512082Y-66033312D01*
X109280037Y-66103702D01*
X109066184Y-66218009D01*
X108878740Y-66371840D01*
X108724909Y-66559284D01*
X108610602Y-66773137D01*
X108540212Y-67005182D01*
X108516444Y-67246500D01*
X108450356Y-67246500D01*
X108426588Y-67005182D01*
X108356198Y-66773137D01*
X108241891Y-66559284D01*
X108088060Y-66371840D01*
X107900616Y-66218009D01*
X107686763Y-66103702D01*
X107454718Y-66033312D01*
X107273872Y-66015500D01*
X107152928Y-66015500D01*
X106972082Y-66033312D01*
X106740037Y-66103702D01*
X106526184Y-66218009D01*
X106451000Y-66279711D01*
X106451000Y-65673289D01*
X106526184Y-65734991D01*
X106740037Y-65849298D01*
X106972082Y-65919688D01*
X107152928Y-65937500D01*
X107273872Y-65937500D01*
X107454718Y-65919688D01*
X107686763Y-65849298D01*
X107900616Y-65734991D01*
X108088060Y-65581160D01*
X108241891Y-65393716D01*
X108356198Y-65179863D01*
X108426588Y-64947818D01*
X108450356Y-64706500D01*
X108426588Y-64465182D01*
X108356198Y-64233137D01*
X108241891Y-64019284D01*
X108088060Y-63831840D01*
X107900616Y-63678009D01*
X107686763Y-63563702D01*
X107454718Y-63493312D01*
X107273872Y-63475500D01*
X107152928Y-63475500D01*
X106972082Y-63493312D01*
X106740037Y-63563702D01*
X106526184Y-63678009D01*
X106451000Y-63739711D01*
X106451000Y-63133289D01*
X106526184Y-63194991D01*
X106740037Y-63309298D01*
X106972082Y-63379688D01*
X107152928Y-63397500D01*
X107273872Y-63397500D01*
X107454718Y-63379688D01*
X107686763Y-63309298D01*
X107900616Y-63194991D01*
X108088060Y-63041160D01*
X108241891Y-62853716D01*
X108356198Y-62639863D01*
X108426588Y-62407818D01*
X108450356Y-62166500D01*
X108426588Y-61925182D01*
X108356198Y-61693137D01*
X108241891Y-61479284D01*
X108088060Y-61291840D01*
X107900616Y-61138009D01*
X107686763Y-61023702D01*
X107454718Y-60953312D01*
X107273872Y-60935500D01*
X107152928Y-60935500D01*
X106972082Y-60953312D01*
X106740037Y-61023702D01*
X106526184Y-61138009D01*
X106451000Y-61199711D01*
X106451000Y-60593289D01*
X106526184Y-60654991D01*
X106740037Y-60769298D01*
X106972082Y-60839688D01*
X107152928Y-60857500D01*
X107273872Y-60857500D01*
X107454718Y-60839688D01*
X107686763Y-60769298D01*
X107900616Y-60654991D01*
X108088060Y-60501160D01*
X108241891Y-60313716D01*
X108356198Y-60099863D01*
X108426588Y-59867818D01*
X108450356Y-59626500D01*
X108426588Y-59385182D01*
X108356198Y-59153137D01*
X108241891Y-58939284D01*
X108088060Y-58751840D01*
X107900616Y-58598009D01*
X107686763Y-58483702D01*
X107454718Y-58413312D01*
X107273872Y-58395500D01*
X107152928Y-58395500D01*
X106972082Y-58413312D01*
X106740037Y-58483702D01*
X106526184Y-58598009D01*
X106451000Y-58659711D01*
X106451000Y-58319343D01*
X108063400Y-58319343D01*
X108138089Y-58311987D01*
X108209908Y-58290201D01*
X108276096Y-58254822D01*
X108334111Y-58207211D01*
X108381722Y-58149196D01*
X108417101Y-58083008D01*
X108438887Y-58011189D01*
X108446243Y-57936500D01*
X108446243Y-56236500D01*
X108438887Y-56161811D01*
X108417101Y-56089992D01*
X108381722Y-56023804D01*
X108334111Y-55965789D01*
X108276096Y-55918178D01*
X108209908Y-55882799D01*
X108138089Y-55861013D01*
X108063400Y-55853657D01*
X106451000Y-55853657D01*
X106451000Y-55524000D01*
X145644001Y-55524000D01*
X145644001Y-56266592D01*
G36*
X144907000Y-72263000D02*
G01*
X144927000Y-72263000D01*
X144927000Y-72517000D01*
X144907000Y-72517000D01*
X144907000Y-72537000D01*
X144653000Y-72537000D01*
X144653000Y-72517000D01*
X144633000Y-72517000D01*
X144633000Y-72263000D01*
X144653000Y-72263000D01*
X144653000Y-72243000D01*
X144907000Y-72243000D01*
X144907000Y-72263000D01*
X144907000Y-72263000D01*
G37*
X144907000Y-72263000D02*
X144927000Y-72263000D01*
X144927000Y-72517000D01*
X144907000Y-72517000D01*
X144907000Y-72537000D01*
X144653000Y-72537000D01*
X144653000Y-72517000D01*
X144633000Y-72517000D01*
X144633000Y-72263000D01*
X144653000Y-72263000D01*
X144653000Y-72243000D01*
X144907000Y-72243000D01*
X144907000Y-72263000D01*
M02*
