G04 #@! TF.GenerationSoftware,KiCad,Pcbnew,5.1.2*
G04 #@! TF.CreationDate,2019-07-12T14:08:37+08:00*
G04 #@! TF.ProjectId,GPS,4750532e-6b69-4636-9164-5f7063625858,0.2*
G04 #@! TF.SameCoordinates,Original*
G04 #@! TF.FileFunction,Legend,Bot*
G04 #@! TF.FilePolarity,Positive*
%FSLAX46Y46*%
G04 Gerber Fmt 4.6, Leading zero omitted, Abs format (unit mm)*
G04 Created by KiCad (PCBNEW 5.1.2) date 2019-07-12 14:08:37*
%MOMM*%
%LPD*%
G04 APERTURE LIST*
%ADD10C,0.120000*%
%ADD11C,0.150000*%
G04 APERTURE END LIST*
D10*
X116966000Y-80697000D02*
X115151000Y-80697000D01*
X116966000Y-80952000D02*
X116966000Y-80697000D01*
X120826000Y-80952000D02*
X116966000Y-80952000D01*
X124686000Y-80952000D02*
X124686000Y-80697000D01*
X120826000Y-80952000D02*
X124686000Y-80952000D01*
X116966000Y-70432000D02*
X116966000Y-70687000D01*
X120826000Y-70432000D02*
X116966000Y-70432000D01*
X124686000Y-70432000D02*
X124686000Y-70687000D01*
X120826000Y-70432000D02*
X124686000Y-70432000D01*
X114977000Y-55554000D02*
X121177000Y-55554000D01*
X121177000Y-59254000D02*
X114977000Y-59254000D01*
X114977000Y-59254000D02*
X114977000Y-58604000D01*
X114977000Y-56204000D02*
X114977000Y-55554000D01*
X121177000Y-55554000D02*
X121177000Y-56204000D01*
X121177000Y-59254000D02*
X121177000Y-58604000D01*
X138942578Y-73735000D02*
X138425422Y-73735000D01*
X138942578Y-72315000D02*
X138425422Y-72315000D01*
X138942578Y-71703000D02*
X138425422Y-71703000D01*
X138942578Y-70283000D02*
X138425422Y-70283000D01*
X114248000Y-77465422D02*
X114248000Y-77982578D01*
X112828000Y-77465422D02*
X112828000Y-77982578D01*
X109753400Y-86356500D02*
X111083400Y-86356500D01*
X111083400Y-86356500D02*
X111083400Y-85026500D01*
X111083400Y-83756500D02*
X111083400Y-65916500D01*
X108423400Y-65916500D02*
X111083400Y-65916500D01*
X108423400Y-83756500D02*
X108423400Y-65916500D01*
X108423400Y-83756500D02*
X111083400Y-83756500D01*
X107213400Y-55756500D02*
X105883400Y-55756500D01*
X105883400Y-55756500D02*
X105883400Y-57086500D01*
X105883400Y-58356500D02*
X105883400Y-86356500D01*
X108543400Y-86356500D02*
X105883400Y-86356500D01*
X108543400Y-58356500D02*
X108543400Y-86356500D01*
X108543400Y-58356500D02*
X105883400Y-58356500D01*
X137975078Y-66877000D02*
X137457922Y-66877000D01*
X137975078Y-65457000D02*
X137457922Y-65457000D01*
X119941078Y-61733500D02*
X119423922Y-61733500D01*
X119941078Y-60313500D02*
X119423922Y-60313500D01*
X118035000Y-64281578D02*
X118035000Y-63764422D01*
X119455000Y-64281578D02*
X119455000Y-63764422D01*
X115177500Y-62376578D02*
X115177500Y-61859422D01*
X116597500Y-62376578D02*
X116597500Y-61859422D01*
X135944000Y-75819000D02*
G75*
G03X135944000Y-75819000I-3530000J0D01*
G01*
X114300000Y-65619500D02*
X114300000Y-66419500D01*
X114500000Y-65619500D02*
X114300000Y-65619500D01*
X114300000Y-68619500D02*
X114500000Y-68619500D01*
X114300000Y-67819500D02*
X114300000Y-68619500D01*
X117300000Y-68619500D02*
X117300000Y-67819500D01*
X117100000Y-68619500D02*
X117300000Y-68619500D01*
X117300000Y-65819500D02*
X117100000Y-65619500D01*
X117300000Y-66419500D02*
X117300000Y-65819500D01*
X117300000Y-66419500D02*
X117800000Y-66419500D01*
X117300000Y-67819500D02*
X117800000Y-67819500D01*
X135197000Y-69119500D02*
X135197000Y-59019500D01*
X123019000Y-69119500D02*
X135197000Y-69119500D01*
X122987000Y-58219500D02*
X122987000Y-69119500D01*
X134397000Y-58219500D02*
X122987000Y-58219500D01*
X135197000Y-59019500D02*
X134397000Y-58219500D01*
D11*
X121587904Y-81244380D02*
X121587904Y-82053904D01*
X121540285Y-82149142D01*
X121492666Y-82196761D01*
X121397428Y-82244380D01*
X121206952Y-82244380D01*
X121111714Y-82196761D01*
X121064095Y-82149142D01*
X121016476Y-82053904D01*
X121016476Y-81244380D01*
X120587904Y-81339619D02*
X120540285Y-81292000D01*
X120445047Y-81244380D01*
X120206952Y-81244380D01*
X120111714Y-81292000D01*
X120064095Y-81339619D01*
X120016476Y-81434857D01*
X120016476Y-81530095D01*
X120064095Y-81672952D01*
X120635523Y-82244380D01*
X120016476Y-82244380D01*
X112839333Y-57808761D02*
X112696476Y-57856380D01*
X112458380Y-57856380D01*
X112363142Y-57808761D01*
X112315523Y-57761142D01*
X112267904Y-57665904D01*
X112267904Y-57570666D01*
X112315523Y-57475428D01*
X112363142Y-57427809D01*
X112458380Y-57380190D01*
X112648857Y-57332571D01*
X112744095Y-57284952D01*
X112791714Y-57237333D01*
X112839333Y-57142095D01*
X112839333Y-57046857D01*
X112791714Y-56951619D01*
X112744095Y-56904000D01*
X112648857Y-56856380D01*
X112410761Y-56856380D01*
X112267904Y-56904000D01*
X111934571Y-56856380D02*
X111696476Y-57856380D01*
X111506000Y-57142095D01*
X111315523Y-57856380D01*
X111077428Y-56856380D01*
X110172666Y-57856380D02*
X110744095Y-57856380D01*
X110458380Y-57856380D02*
X110458380Y-56856380D01*
X110553619Y-56999238D01*
X110648857Y-57094476D01*
X110744095Y-57142095D01*
X140247666Y-75128380D02*
X140581000Y-74652190D01*
X140819095Y-75128380D02*
X140819095Y-74128380D01*
X140438142Y-74128380D01*
X140342904Y-74176000D01*
X140295285Y-74223619D01*
X140247666Y-74318857D01*
X140247666Y-74461714D01*
X140295285Y-74556952D01*
X140342904Y-74604571D01*
X140438142Y-74652190D01*
X140819095Y-74652190D01*
X139390523Y-74461714D02*
X139390523Y-75128380D01*
X139628619Y-74080761D02*
X139866714Y-74795047D01*
X139247666Y-74795047D01*
X138850666Y-69795380D02*
X139184000Y-69319190D01*
X139422095Y-69795380D02*
X139422095Y-68795380D01*
X139041142Y-68795380D01*
X138945904Y-68843000D01*
X138898285Y-68890619D01*
X138850666Y-68985857D01*
X138850666Y-69128714D01*
X138898285Y-69223952D01*
X138945904Y-69271571D01*
X139041142Y-69319190D01*
X139422095Y-69319190D01*
X138517333Y-68795380D02*
X137898285Y-68795380D01*
X138231619Y-69176333D01*
X138088761Y-69176333D01*
X137993523Y-69223952D01*
X137945904Y-69271571D01*
X137898285Y-69366809D01*
X137898285Y-69604904D01*
X137945904Y-69700142D01*
X137993523Y-69747761D01*
X138088761Y-69795380D01*
X138374476Y-69795380D01*
X138469714Y-69747761D01*
X138517333Y-69700142D01*
X112245142Y-77557333D02*
X112292761Y-77509714D01*
X112340380Y-77366857D01*
X112340380Y-77271619D01*
X112292761Y-77128761D01*
X112197523Y-77033523D01*
X112102285Y-76985904D01*
X111911809Y-76938285D01*
X111768952Y-76938285D01*
X111578476Y-76985904D01*
X111483238Y-77033523D01*
X111388000Y-77128761D01*
X111340380Y-77271619D01*
X111340380Y-77366857D01*
X111388000Y-77509714D01*
X111435619Y-77557333D01*
X111435619Y-77938285D02*
X111388000Y-77985904D01*
X111340380Y-78081142D01*
X111340380Y-78319238D01*
X111388000Y-78414476D01*
X111435619Y-78462095D01*
X111530857Y-78509714D01*
X111626095Y-78509714D01*
X111768952Y-78462095D01*
X112340380Y-77890666D01*
X112340380Y-78509714D01*
X110086733Y-87248880D02*
X110086733Y-87963166D01*
X110134352Y-88106023D01*
X110229590Y-88201261D01*
X110372447Y-88248880D01*
X110467685Y-88248880D01*
X109181971Y-87582214D02*
X109181971Y-88248880D01*
X109420066Y-87201261D02*
X109658161Y-87915547D01*
X109039114Y-87915547D01*
X107546733Y-53768880D02*
X107546733Y-54483166D01*
X107594352Y-54626023D01*
X107689590Y-54721261D01*
X107832447Y-54768880D01*
X107927685Y-54768880D01*
X107165780Y-53768880D02*
X106546733Y-53768880D01*
X106880066Y-54149833D01*
X106737209Y-54149833D01*
X106641971Y-54197452D01*
X106594352Y-54245071D01*
X106546733Y-54340309D01*
X106546733Y-54578404D01*
X106594352Y-54673642D01*
X106641971Y-54721261D01*
X106737209Y-54768880D01*
X107022923Y-54768880D01*
X107118161Y-54721261D01*
X107165780Y-54673642D01*
X137883166Y-64969380D02*
X138216500Y-64493190D01*
X138454595Y-64969380D02*
X138454595Y-63969380D01*
X138073642Y-63969380D01*
X137978404Y-64017000D01*
X137930785Y-64064619D01*
X137883166Y-64159857D01*
X137883166Y-64302714D01*
X137930785Y-64397952D01*
X137978404Y-64445571D01*
X138073642Y-64493190D01*
X138454595Y-64493190D01*
X137502214Y-64064619D02*
X137454595Y-64017000D01*
X137359357Y-63969380D01*
X137121261Y-63969380D01*
X137026023Y-64017000D01*
X136978404Y-64064619D01*
X136930785Y-64159857D01*
X136930785Y-64255095D01*
X136978404Y-64397952D01*
X137549833Y-64969380D01*
X136930785Y-64969380D01*
X122213666Y-60015380D02*
X122547000Y-59539190D01*
X122785095Y-60015380D02*
X122785095Y-59015380D01*
X122404142Y-59015380D01*
X122308904Y-59063000D01*
X122261285Y-59110619D01*
X122213666Y-59205857D01*
X122213666Y-59348714D01*
X122261285Y-59443952D01*
X122308904Y-59491571D01*
X122404142Y-59539190D01*
X122785095Y-59539190D01*
X121261285Y-60015380D02*
X121832714Y-60015380D01*
X121547000Y-60015380D02*
X121547000Y-59015380D01*
X121642238Y-59158238D01*
X121737476Y-59253476D01*
X121832714Y-59301095D01*
X120847380Y-63856333D02*
X120847380Y-63380142D01*
X119847380Y-63380142D01*
X120847380Y-64713476D02*
X120847380Y-64142047D01*
X120847380Y-64427761D02*
X119847380Y-64427761D01*
X119990238Y-64332523D01*
X120085476Y-64237285D01*
X120133095Y-64142047D01*
X117894642Y-61951333D02*
X117942261Y-61903714D01*
X117989880Y-61760857D01*
X117989880Y-61665619D01*
X117942261Y-61522761D01*
X117847023Y-61427523D01*
X117751785Y-61379904D01*
X117561309Y-61332285D01*
X117418452Y-61332285D01*
X117227976Y-61379904D01*
X117132738Y-61427523D01*
X117037500Y-61522761D01*
X116989880Y-61665619D01*
X116989880Y-61760857D01*
X117037500Y-61903714D01*
X117085119Y-61951333D01*
X117989880Y-62903714D02*
X117989880Y-62332285D01*
X117989880Y-62618000D02*
X116989880Y-62618000D01*
X117132738Y-62522761D01*
X117227976Y-62427523D01*
X117275595Y-62332285D01*
X133599714Y-80147571D02*
X133456857Y-80195190D01*
X133409238Y-80242809D01*
X133361619Y-80338047D01*
X133361619Y-80480904D01*
X133409238Y-80576142D01*
X133456857Y-80623761D01*
X133552095Y-80671380D01*
X133933047Y-80671380D01*
X133933047Y-79671380D01*
X133599714Y-79671380D01*
X133504476Y-79719000D01*
X133456857Y-79766619D01*
X133409238Y-79861857D01*
X133409238Y-79957095D01*
X133456857Y-80052333D01*
X133504476Y-80099952D01*
X133599714Y-80147571D01*
X133933047Y-80147571D01*
X133075904Y-79671380D02*
X132504476Y-79671380D01*
X132790190Y-80671380D02*
X132790190Y-79671380D01*
X131647333Y-80671380D02*
X132218761Y-80671380D01*
X131933047Y-80671380D02*
X131933047Y-79671380D01*
X132028285Y-79814238D01*
X132123523Y-79909476D01*
X132218761Y-79957095D01*
X118752380Y-66786166D02*
X119466666Y-66786166D01*
X119609523Y-66738547D01*
X119704761Y-66643309D01*
X119752380Y-66500452D01*
X119752380Y-66405214D01*
X119752380Y-67786166D02*
X119752380Y-67214738D01*
X119752380Y-67500452D02*
X118752380Y-67500452D01*
X118895238Y-67405214D01*
X118990476Y-67309976D01*
X119038095Y-67214738D01*
X129980904Y-56671880D02*
X129980904Y-57481404D01*
X129933285Y-57576642D01*
X129885666Y-57624261D01*
X129790428Y-57671880D01*
X129599952Y-57671880D01*
X129504714Y-57624261D01*
X129457095Y-57576642D01*
X129409476Y-57481404D01*
X129409476Y-56671880D01*
X128409476Y-57671880D02*
X128980904Y-57671880D01*
X128695190Y-57671880D02*
X128695190Y-56671880D01*
X128790428Y-56814738D01*
X128885666Y-56909976D01*
X128980904Y-56957595D01*
M02*
