G04 #@! TF.GenerationSoftware,KiCad,Pcbnew,5.1.2*
G04 #@! TF.CreationDate,2019-07-12T14:08:37+08:00*
G04 #@! TF.ProjectId,GPS,4750532e-6b69-4636-9164-5f7063625858,0.2*
G04 #@! TF.SameCoordinates,Original*
G04 #@! TF.FileFunction,Soldermask,Top*
G04 #@! TF.FilePolarity,Negative*
%FSLAX46Y46*%
G04 Gerber Fmt 4.6, Leading zero omitted, Abs format (unit mm)*
G04 Created by KiCad (PCBNEW 5.1.2) date 2019-07-12 14:08:37*
%MOMM*%
%LPD*%
G04 APERTURE LIST*
%ADD10C,0.100000*%
G04 APERTURE END LIST*
D10*
G36*
X144890442Y-84195518D02*
G01*
X144956627Y-84202037D01*
X145126466Y-84253557D01*
X145282991Y-84337222D01*
X145318729Y-84366552D01*
X145420186Y-84449814D01*
X145503448Y-84551271D01*
X145532778Y-84587009D01*
X145616443Y-84743534D01*
X145667963Y-84913373D01*
X145685359Y-85090000D01*
X145667963Y-85266627D01*
X145616443Y-85436466D01*
X145532778Y-85592991D01*
X145503448Y-85628729D01*
X145420186Y-85730186D01*
X145318729Y-85813448D01*
X145282991Y-85842778D01*
X145126466Y-85926443D01*
X144956627Y-85977963D01*
X144890442Y-85984482D01*
X144824260Y-85991000D01*
X144735740Y-85991000D01*
X144669558Y-85984482D01*
X144603373Y-85977963D01*
X144433534Y-85926443D01*
X144277009Y-85842778D01*
X144241271Y-85813448D01*
X144139814Y-85730186D01*
X144056552Y-85628729D01*
X144027222Y-85592991D01*
X143943557Y-85436466D01*
X143892037Y-85266627D01*
X143874641Y-85090000D01*
X143892037Y-84913373D01*
X143943557Y-84743534D01*
X144027222Y-84587009D01*
X144056552Y-84551271D01*
X144139814Y-84449814D01*
X144241271Y-84366552D01*
X144277009Y-84337222D01*
X144433534Y-84253557D01*
X144603373Y-84202037D01*
X144669558Y-84195518D01*
X144735740Y-84189000D01*
X144824260Y-84189000D01*
X144890442Y-84195518D01*
X144890442Y-84195518D01*
G37*
G36*
X142350442Y-84195518D02*
G01*
X142416627Y-84202037D01*
X142586466Y-84253557D01*
X142742991Y-84337222D01*
X142778729Y-84366552D01*
X142880186Y-84449814D01*
X142963448Y-84551271D01*
X142992778Y-84587009D01*
X143076443Y-84743534D01*
X143127963Y-84913373D01*
X143145359Y-85090000D01*
X143127963Y-85266627D01*
X143076443Y-85436466D01*
X142992778Y-85592991D01*
X142963448Y-85628729D01*
X142880186Y-85730186D01*
X142778729Y-85813448D01*
X142742991Y-85842778D01*
X142586466Y-85926443D01*
X142416627Y-85977963D01*
X142350442Y-85984482D01*
X142284260Y-85991000D01*
X142195740Y-85991000D01*
X142129558Y-85984482D01*
X142063373Y-85977963D01*
X141893534Y-85926443D01*
X141737009Y-85842778D01*
X141701271Y-85813448D01*
X141599814Y-85730186D01*
X141516552Y-85628729D01*
X141487222Y-85592991D01*
X141403557Y-85436466D01*
X141352037Y-85266627D01*
X141334641Y-85090000D01*
X141352037Y-84913373D01*
X141403557Y-84743534D01*
X141487222Y-84587009D01*
X141516552Y-84551271D01*
X141599814Y-84449814D01*
X141701271Y-84366552D01*
X141737009Y-84337222D01*
X141893534Y-84253557D01*
X142063373Y-84202037D01*
X142129558Y-84195518D01*
X142195740Y-84189000D01*
X142284260Y-84189000D01*
X142350442Y-84195518D01*
X142350442Y-84195518D01*
G37*
G36*
X110654400Y-85927500D02*
G01*
X108852400Y-85927500D01*
X108852400Y-84125500D01*
X110654400Y-84125500D01*
X110654400Y-85927500D01*
X110654400Y-85927500D01*
G37*
G36*
X107323843Y-84132019D02*
G01*
X107390027Y-84138537D01*
X107559866Y-84190057D01*
X107716391Y-84273722D01*
X107752129Y-84303052D01*
X107853586Y-84386314D01*
X107936848Y-84487771D01*
X107966178Y-84523509D01*
X108049843Y-84680034D01*
X108101363Y-84849873D01*
X108118759Y-85026500D01*
X108101363Y-85203127D01*
X108049843Y-85372966D01*
X107966178Y-85529491D01*
X107936848Y-85565229D01*
X107853586Y-85666686D01*
X107752129Y-85749948D01*
X107716391Y-85779278D01*
X107559866Y-85862943D01*
X107390027Y-85914463D01*
X107323842Y-85920982D01*
X107257660Y-85927500D01*
X107169140Y-85927500D01*
X107102958Y-85920982D01*
X107036773Y-85914463D01*
X106866934Y-85862943D01*
X106710409Y-85779278D01*
X106674671Y-85749948D01*
X106573214Y-85666686D01*
X106489952Y-85565229D01*
X106460622Y-85529491D01*
X106376957Y-85372966D01*
X106325437Y-85203127D01*
X106308041Y-85026500D01*
X106325437Y-84849873D01*
X106376957Y-84680034D01*
X106460622Y-84523509D01*
X106489952Y-84487771D01*
X106573214Y-84386314D01*
X106674671Y-84303052D01*
X106710409Y-84273722D01*
X106866934Y-84190057D01*
X107036773Y-84138537D01*
X107102957Y-84132019D01*
X107169140Y-84125500D01*
X107257660Y-84125500D01*
X107323843Y-84132019D01*
X107323843Y-84132019D01*
G37*
G36*
X142350443Y-81655519D02*
G01*
X142416627Y-81662037D01*
X142586466Y-81713557D01*
X142742991Y-81797222D01*
X142778729Y-81826552D01*
X142880186Y-81909814D01*
X142963448Y-82011271D01*
X142992778Y-82047009D01*
X143076443Y-82203534D01*
X143127963Y-82373373D01*
X143145359Y-82550000D01*
X143127963Y-82726627D01*
X143076443Y-82896466D01*
X142992778Y-83052991D01*
X142963448Y-83088729D01*
X142880186Y-83190186D01*
X142778729Y-83273448D01*
X142742991Y-83302778D01*
X142586466Y-83386443D01*
X142416627Y-83437963D01*
X142350443Y-83444481D01*
X142284260Y-83451000D01*
X142195740Y-83451000D01*
X142129557Y-83444481D01*
X142063373Y-83437963D01*
X141893534Y-83386443D01*
X141737009Y-83302778D01*
X141701271Y-83273448D01*
X141599814Y-83190186D01*
X141516552Y-83088729D01*
X141487222Y-83052991D01*
X141403557Y-82896466D01*
X141352037Y-82726627D01*
X141334641Y-82550000D01*
X141352037Y-82373373D01*
X141403557Y-82203534D01*
X141487222Y-82047009D01*
X141516552Y-82011271D01*
X141599814Y-81909814D01*
X141701271Y-81826552D01*
X141737009Y-81797222D01*
X141893534Y-81713557D01*
X142063373Y-81662037D01*
X142129557Y-81655519D01*
X142195740Y-81649000D01*
X142284260Y-81649000D01*
X142350443Y-81655519D01*
X142350443Y-81655519D01*
G37*
G36*
X144890443Y-81655519D02*
G01*
X144956627Y-81662037D01*
X145126466Y-81713557D01*
X145282991Y-81797222D01*
X145318729Y-81826552D01*
X145420186Y-81909814D01*
X145503448Y-82011271D01*
X145532778Y-82047009D01*
X145616443Y-82203534D01*
X145667963Y-82373373D01*
X145685359Y-82550000D01*
X145667963Y-82726627D01*
X145616443Y-82896466D01*
X145532778Y-83052991D01*
X145503448Y-83088729D01*
X145420186Y-83190186D01*
X145318729Y-83273448D01*
X145282991Y-83302778D01*
X145126466Y-83386443D01*
X144956627Y-83437963D01*
X144890443Y-83444481D01*
X144824260Y-83451000D01*
X144735740Y-83451000D01*
X144669557Y-83444481D01*
X144603373Y-83437963D01*
X144433534Y-83386443D01*
X144277009Y-83302778D01*
X144241271Y-83273448D01*
X144139814Y-83190186D01*
X144056552Y-83088729D01*
X144027222Y-83052991D01*
X143943557Y-82896466D01*
X143892037Y-82726627D01*
X143874641Y-82550000D01*
X143892037Y-82373373D01*
X143943557Y-82203534D01*
X144027222Y-82047009D01*
X144056552Y-82011271D01*
X144139814Y-81909814D01*
X144241271Y-81826552D01*
X144277009Y-81797222D01*
X144433534Y-81713557D01*
X144603373Y-81662037D01*
X144669557Y-81655519D01*
X144735740Y-81649000D01*
X144824260Y-81649000D01*
X144890443Y-81655519D01*
X144890443Y-81655519D01*
G37*
G36*
X107323842Y-81592018D02*
G01*
X107390027Y-81598537D01*
X107559866Y-81650057D01*
X107716391Y-81733722D01*
X107752129Y-81763052D01*
X107853586Y-81846314D01*
X107936848Y-81947771D01*
X107966178Y-81983509D01*
X108049843Y-82140034D01*
X108101363Y-82309873D01*
X108118759Y-82486500D01*
X108101363Y-82663127D01*
X108049843Y-82832966D01*
X107966178Y-82989491D01*
X107936848Y-83025229D01*
X107853586Y-83126686D01*
X107752129Y-83209948D01*
X107716391Y-83239278D01*
X107559866Y-83322943D01*
X107390027Y-83374463D01*
X107323842Y-83380982D01*
X107257660Y-83387500D01*
X107169140Y-83387500D01*
X107102958Y-83380982D01*
X107036773Y-83374463D01*
X106866934Y-83322943D01*
X106710409Y-83239278D01*
X106674671Y-83209948D01*
X106573214Y-83126686D01*
X106489952Y-83025229D01*
X106460622Y-82989491D01*
X106376957Y-82832966D01*
X106325437Y-82663127D01*
X106308041Y-82486500D01*
X106325437Y-82309873D01*
X106376957Y-82140034D01*
X106460622Y-81983509D01*
X106489952Y-81947771D01*
X106573214Y-81846314D01*
X106674671Y-81763052D01*
X106710409Y-81733722D01*
X106866934Y-81650057D01*
X107036773Y-81598537D01*
X107102958Y-81592018D01*
X107169140Y-81585500D01*
X107257660Y-81585500D01*
X107323842Y-81592018D01*
X107323842Y-81592018D01*
G37*
G36*
X109863842Y-81592018D02*
G01*
X109930027Y-81598537D01*
X110099866Y-81650057D01*
X110256391Y-81733722D01*
X110292129Y-81763052D01*
X110393586Y-81846314D01*
X110476848Y-81947771D01*
X110506178Y-81983509D01*
X110589843Y-82140034D01*
X110641363Y-82309873D01*
X110658759Y-82486500D01*
X110641363Y-82663127D01*
X110589843Y-82832966D01*
X110506178Y-82989491D01*
X110476848Y-83025229D01*
X110393586Y-83126686D01*
X110292129Y-83209948D01*
X110256391Y-83239278D01*
X110099866Y-83322943D01*
X109930027Y-83374463D01*
X109863842Y-83380982D01*
X109797660Y-83387500D01*
X109709140Y-83387500D01*
X109642958Y-83380982D01*
X109576773Y-83374463D01*
X109406934Y-83322943D01*
X109250409Y-83239278D01*
X109214671Y-83209948D01*
X109113214Y-83126686D01*
X109029952Y-83025229D01*
X109000622Y-82989491D01*
X108916957Y-82832966D01*
X108865437Y-82663127D01*
X108848041Y-82486500D01*
X108865437Y-82309873D01*
X108916957Y-82140034D01*
X109000622Y-81983509D01*
X109029952Y-81947771D01*
X109113214Y-81846314D01*
X109214671Y-81763052D01*
X109250409Y-81733722D01*
X109406934Y-81650057D01*
X109576773Y-81598537D01*
X109642958Y-81592018D01*
X109709140Y-81585500D01*
X109797660Y-81585500D01*
X109863842Y-81592018D01*
X109863842Y-81592018D01*
G37*
G36*
X142350443Y-79115519D02*
G01*
X142416627Y-79122037D01*
X142586466Y-79173557D01*
X142742991Y-79257222D01*
X142778729Y-79286552D01*
X142880186Y-79369814D01*
X142963448Y-79471271D01*
X142992778Y-79507009D01*
X143076443Y-79663534D01*
X143127963Y-79833373D01*
X143145359Y-80010000D01*
X143127963Y-80186627D01*
X143076443Y-80356466D01*
X142992778Y-80512991D01*
X142963448Y-80548729D01*
X142880186Y-80650186D01*
X142778729Y-80733448D01*
X142742991Y-80762778D01*
X142586466Y-80846443D01*
X142416627Y-80897963D01*
X142350442Y-80904482D01*
X142284260Y-80911000D01*
X142195740Y-80911000D01*
X142129558Y-80904482D01*
X142063373Y-80897963D01*
X141893534Y-80846443D01*
X141737009Y-80762778D01*
X141701271Y-80733448D01*
X141599814Y-80650186D01*
X141516552Y-80548729D01*
X141487222Y-80512991D01*
X141403557Y-80356466D01*
X141352037Y-80186627D01*
X141334641Y-80010000D01*
X141352037Y-79833373D01*
X141403557Y-79663534D01*
X141487222Y-79507009D01*
X141516552Y-79471271D01*
X141599814Y-79369814D01*
X141701271Y-79286552D01*
X141737009Y-79257222D01*
X141893534Y-79173557D01*
X142063373Y-79122037D01*
X142129557Y-79115519D01*
X142195740Y-79109000D01*
X142284260Y-79109000D01*
X142350443Y-79115519D01*
X142350443Y-79115519D01*
G37*
G36*
X144890443Y-79115519D02*
G01*
X144956627Y-79122037D01*
X145126466Y-79173557D01*
X145282991Y-79257222D01*
X145318729Y-79286552D01*
X145420186Y-79369814D01*
X145503448Y-79471271D01*
X145532778Y-79507009D01*
X145616443Y-79663534D01*
X145667963Y-79833373D01*
X145685359Y-80010000D01*
X145667963Y-80186627D01*
X145616443Y-80356466D01*
X145532778Y-80512991D01*
X145503448Y-80548729D01*
X145420186Y-80650186D01*
X145318729Y-80733448D01*
X145282991Y-80762778D01*
X145126466Y-80846443D01*
X144956627Y-80897963D01*
X144890442Y-80904482D01*
X144824260Y-80911000D01*
X144735740Y-80911000D01*
X144669558Y-80904482D01*
X144603373Y-80897963D01*
X144433534Y-80846443D01*
X144277009Y-80762778D01*
X144241271Y-80733448D01*
X144139814Y-80650186D01*
X144056552Y-80548729D01*
X144027222Y-80512991D01*
X143943557Y-80356466D01*
X143892037Y-80186627D01*
X143874641Y-80010000D01*
X143892037Y-79833373D01*
X143943557Y-79663534D01*
X144027222Y-79507009D01*
X144056552Y-79471271D01*
X144139814Y-79369814D01*
X144241271Y-79286552D01*
X144277009Y-79257222D01*
X144433534Y-79173557D01*
X144603373Y-79122037D01*
X144669557Y-79115519D01*
X144735740Y-79109000D01*
X144824260Y-79109000D01*
X144890443Y-79115519D01*
X144890443Y-79115519D01*
G37*
G36*
X107323842Y-79052018D02*
G01*
X107390027Y-79058537D01*
X107559866Y-79110057D01*
X107716391Y-79193722D01*
X107752129Y-79223052D01*
X107853586Y-79306314D01*
X107936848Y-79407771D01*
X107966178Y-79443509D01*
X108049843Y-79600034D01*
X108101363Y-79769873D01*
X108118759Y-79946500D01*
X108101363Y-80123127D01*
X108049843Y-80292966D01*
X107966178Y-80449491D01*
X107936848Y-80485229D01*
X107853586Y-80586686D01*
X107752129Y-80669948D01*
X107716391Y-80699278D01*
X107559866Y-80782943D01*
X107390027Y-80834463D01*
X107323842Y-80840982D01*
X107257660Y-80847500D01*
X107169140Y-80847500D01*
X107102958Y-80840982D01*
X107036773Y-80834463D01*
X106866934Y-80782943D01*
X106710409Y-80699278D01*
X106674671Y-80669948D01*
X106573214Y-80586686D01*
X106489952Y-80485229D01*
X106460622Y-80449491D01*
X106376957Y-80292966D01*
X106325437Y-80123127D01*
X106308041Y-79946500D01*
X106325437Y-79769873D01*
X106376957Y-79600034D01*
X106460622Y-79443509D01*
X106489952Y-79407771D01*
X106573214Y-79306314D01*
X106674671Y-79223052D01*
X106710409Y-79193722D01*
X106866934Y-79110057D01*
X107036773Y-79058537D01*
X107102958Y-79052018D01*
X107169140Y-79045500D01*
X107257660Y-79045500D01*
X107323842Y-79052018D01*
X107323842Y-79052018D01*
G37*
G36*
X109863842Y-79052018D02*
G01*
X109930027Y-79058537D01*
X110099866Y-79110057D01*
X110256391Y-79193722D01*
X110292129Y-79223052D01*
X110393586Y-79306314D01*
X110476848Y-79407771D01*
X110506178Y-79443509D01*
X110589843Y-79600034D01*
X110641363Y-79769873D01*
X110658759Y-79946500D01*
X110641363Y-80123127D01*
X110589843Y-80292966D01*
X110506178Y-80449491D01*
X110476848Y-80485229D01*
X110393586Y-80586686D01*
X110292129Y-80669948D01*
X110256391Y-80699278D01*
X110099866Y-80782943D01*
X109930027Y-80834463D01*
X109863842Y-80840982D01*
X109797660Y-80847500D01*
X109709140Y-80847500D01*
X109642958Y-80840982D01*
X109576773Y-80834463D01*
X109406934Y-80782943D01*
X109250409Y-80699278D01*
X109214671Y-80669948D01*
X109113214Y-80586686D01*
X109029952Y-80485229D01*
X109000622Y-80449491D01*
X108916957Y-80292966D01*
X108865437Y-80123127D01*
X108848041Y-79946500D01*
X108865437Y-79769873D01*
X108916957Y-79600034D01*
X109000622Y-79443509D01*
X109029952Y-79407771D01*
X109113214Y-79306314D01*
X109214671Y-79223052D01*
X109250409Y-79193722D01*
X109406934Y-79110057D01*
X109576773Y-79058537D01*
X109642958Y-79052018D01*
X109709140Y-79045500D01*
X109797660Y-79045500D01*
X109863842Y-79052018D01*
X109863842Y-79052018D01*
G37*
G36*
X144890443Y-76575519D02*
G01*
X144956627Y-76582037D01*
X145126466Y-76633557D01*
X145282991Y-76717222D01*
X145318729Y-76746552D01*
X145420186Y-76829814D01*
X145503448Y-76931271D01*
X145532778Y-76967009D01*
X145616443Y-77123534D01*
X145667963Y-77293373D01*
X145685359Y-77470000D01*
X145667963Y-77646627D01*
X145616443Y-77816466D01*
X145532778Y-77972991D01*
X145503448Y-78008729D01*
X145420186Y-78110186D01*
X145318729Y-78193448D01*
X145282991Y-78222778D01*
X145126466Y-78306443D01*
X144956627Y-78357963D01*
X144890443Y-78364481D01*
X144824260Y-78371000D01*
X144735740Y-78371000D01*
X144669557Y-78364481D01*
X144603373Y-78357963D01*
X144433534Y-78306443D01*
X144277009Y-78222778D01*
X144241271Y-78193448D01*
X144139814Y-78110186D01*
X144056552Y-78008729D01*
X144027222Y-77972991D01*
X143943557Y-77816466D01*
X143892037Y-77646627D01*
X143874641Y-77470000D01*
X143892037Y-77293373D01*
X143943557Y-77123534D01*
X144027222Y-76967009D01*
X144056552Y-76931271D01*
X144139814Y-76829814D01*
X144241271Y-76746552D01*
X144277009Y-76717222D01*
X144433534Y-76633557D01*
X144603373Y-76582037D01*
X144669557Y-76575519D01*
X144735740Y-76569000D01*
X144824260Y-76569000D01*
X144890443Y-76575519D01*
X144890443Y-76575519D01*
G37*
G36*
X142350443Y-76575519D02*
G01*
X142416627Y-76582037D01*
X142586466Y-76633557D01*
X142742991Y-76717222D01*
X142778729Y-76746552D01*
X142880186Y-76829814D01*
X142963448Y-76931271D01*
X142992778Y-76967009D01*
X143076443Y-77123534D01*
X143127963Y-77293373D01*
X143145359Y-77470000D01*
X143127963Y-77646627D01*
X143076443Y-77816466D01*
X142992778Y-77972991D01*
X142963448Y-78008729D01*
X142880186Y-78110186D01*
X142778729Y-78193448D01*
X142742991Y-78222778D01*
X142586466Y-78306443D01*
X142416627Y-78357963D01*
X142350443Y-78364481D01*
X142284260Y-78371000D01*
X142195740Y-78371000D01*
X142129557Y-78364481D01*
X142063373Y-78357963D01*
X141893534Y-78306443D01*
X141737009Y-78222778D01*
X141701271Y-78193448D01*
X141599814Y-78110186D01*
X141516552Y-78008729D01*
X141487222Y-77972991D01*
X141403557Y-77816466D01*
X141352037Y-77646627D01*
X141334641Y-77470000D01*
X141352037Y-77293373D01*
X141403557Y-77123534D01*
X141487222Y-76967009D01*
X141516552Y-76931271D01*
X141599814Y-76829814D01*
X141701271Y-76746552D01*
X141737009Y-76717222D01*
X141893534Y-76633557D01*
X142063373Y-76582037D01*
X142129557Y-76575519D01*
X142195740Y-76569000D01*
X142284260Y-76569000D01*
X142350443Y-76575519D01*
X142350443Y-76575519D01*
G37*
G36*
X109863842Y-76512018D02*
G01*
X109930027Y-76518537D01*
X110099866Y-76570057D01*
X110256391Y-76653722D01*
X110292129Y-76683052D01*
X110393586Y-76766314D01*
X110476848Y-76867771D01*
X110506178Y-76903509D01*
X110589843Y-77060034D01*
X110641363Y-77229873D01*
X110658759Y-77406500D01*
X110641363Y-77583127D01*
X110589843Y-77752966D01*
X110506178Y-77909491D01*
X110476848Y-77945229D01*
X110393586Y-78046686D01*
X110292129Y-78129948D01*
X110256391Y-78159278D01*
X110099866Y-78242943D01*
X109930027Y-78294463D01*
X109863843Y-78300981D01*
X109797660Y-78307500D01*
X109709140Y-78307500D01*
X109642957Y-78300981D01*
X109576773Y-78294463D01*
X109406934Y-78242943D01*
X109250409Y-78159278D01*
X109214671Y-78129948D01*
X109113214Y-78046686D01*
X109029952Y-77945229D01*
X109000622Y-77909491D01*
X108916957Y-77752966D01*
X108865437Y-77583127D01*
X108848041Y-77406500D01*
X108865437Y-77229873D01*
X108916957Y-77060034D01*
X109000622Y-76903509D01*
X109029952Y-76867771D01*
X109113214Y-76766314D01*
X109214671Y-76683052D01*
X109250409Y-76653722D01*
X109406934Y-76570057D01*
X109576773Y-76518537D01*
X109642958Y-76512018D01*
X109709140Y-76505500D01*
X109797660Y-76505500D01*
X109863842Y-76512018D01*
X109863842Y-76512018D01*
G37*
G36*
X107323842Y-76512018D02*
G01*
X107390027Y-76518537D01*
X107559866Y-76570057D01*
X107716391Y-76653722D01*
X107752129Y-76683052D01*
X107853586Y-76766314D01*
X107936848Y-76867771D01*
X107966178Y-76903509D01*
X108049843Y-77060034D01*
X108101363Y-77229873D01*
X108118759Y-77406500D01*
X108101363Y-77583127D01*
X108049843Y-77752966D01*
X107966178Y-77909491D01*
X107936848Y-77945229D01*
X107853586Y-78046686D01*
X107752129Y-78129948D01*
X107716391Y-78159278D01*
X107559866Y-78242943D01*
X107390027Y-78294463D01*
X107323843Y-78300981D01*
X107257660Y-78307500D01*
X107169140Y-78307500D01*
X107102957Y-78300981D01*
X107036773Y-78294463D01*
X106866934Y-78242943D01*
X106710409Y-78159278D01*
X106674671Y-78129948D01*
X106573214Y-78046686D01*
X106489952Y-77945229D01*
X106460622Y-77909491D01*
X106376957Y-77752966D01*
X106325437Y-77583127D01*
X106308041Y-77406500D01*
X106325437Y-77229873D01*
X106376957Y-77060034D01*
X106460622Y-76903509D01*
X106489952Y-76867771D01*
X106573214Y-76766314D01*
X106674671Y-76683052D01*
X106710409Y-76653722D01*
X106866934Y-76570057D01*
X107036773Y-76518537D01*
X107102958Y-76512018D01*
X107169140Y-76505500D01*
X107257660Y-76505500D01*
X107323842Y-76512018D01*
X107323842Y-76512018D01*
G37*
G36*
X144890442Y-74035518D02*
G01*
X144956627Y-74042037D01*
X145126466Y-74093557D01*
X145282991Y-74177222D01*
X145318729Y-74206552D01*
X145420186Y-74289814D01*
X145503448Y-74391271D01*
X145532778Y-74427009D01*
X145616443Y-74583534D01*
X145667963Y-74753373D01*
X145685359Y-74930000D01*
X145667963Y-75106627D01*
X145616443Y-75276466D01*
X145532778Y-75432991D01*
X145503448Y-75468729D01*
X145420186Y-75570186D01*
X145318729Y-75653448D01*
X145282991Y-75682778D01*
X145126466Y-75766443D01*
X144956627Y-75817963D01*
X144890442Y-75824482D01*
X144824260Y-75831000D01*
X144735740Y-75831000D01*
X144669558Y-75824482D01*
X144603373Y-75817963D01*
X144433534Y-75766443D01*
X144277009Y-75682778D01*
X144241271Y-75653448D01*
X144139814Y-75570186D01*
X144056552Y-75468729D01*
X144027222Y-75432991D01*
X143943557Y-75276466D01*
X143892037Y-75106627D01*
X143874641Y-74930000D01*
X143892037Y-74753373D01*
X143943557Y-74583534D01*
X144027222Y-74427009D01*
X144056552Y-74391271D01*
X144139814Y-74289814D01*
X144241271Y-74206552D01*
X144277009Y-74177222D01*
X144433534Y-74093557D01*
X144603373Y-74042037D01*
X144669558Y-74035518D01*
X144735740Y-74029000D01*
X144824260Y-74029000D01*
X144890442Y-74035518D01*
X144890442Y-74035518D01*
G37*
G36*
X142350442Y-74035518D02*
G01*
X142416627Y-74042037D01*
X142586466Y-74093557D01*
X142742991Y-74177222D01*
X142778729Y-74206552D01*
X142880186Y-74289814D01*
X142963448Y-74391271D01*
X142992778Y-74427009D01*
X143076443Y-74583534D01*
X143127963Y-74753373D01*
X143145359Y-74930000D01*
X143127963Y-75106627D01*
X143076443Y-75276466D01*
X142992778Y-75432991D01*
X142963448Y-75468729D01*
X142880186Y-75570186D01*
X142778729Y-75653448D01*
X142742991Y-75682778D01*
X142586466Y-75766443D01*
X142416627Y-75817963D01*
X142350442Y-75824482D01*
X142284260Y-75831000D01*
X142195740Y-75831000D01*
X142129558Y-75824482D01*
X142063373Y-75817963D01*
X141893534Y-75766443D01*
X141737009Y-75682778D01*
X141701271Y-75653448D01*
X141599814Y-75570186D01*
X141516552Y-75468729D01*
X141487222Y-75432991D01*
X141403557Y-75276466D01*
X141352037Y-75106627D01*
X141334641Y-74930000D01*
X141352037Y-74753373D01*
X141403557Y-74583534D01*
X141487222Y-74427009D01*
X141516552Y-74391271D01*
X141599814Y-74289814D01*
X141701271Y-74206552D01*
X141737009Y-74177222D01*
X141893534Y-74093557D01*
X142063373Y-74042037D01*
X142129558Y-74035518D01*
X142195740Y-74029000D01*
X142284260Y-74029000D01*
X142350442Y-74035518D01*
X142350442Y-74035518D01*
G37*
G36*
X107323843Y-73972019D02*
G01*
X107390027Y-73978537D01*
X107559866Y-74030057D01*
X107716391Y-74113722D01*
X107752129Y-74143052D01*
X107853586Y-74226314D01*
X107936848Y-74327771D01*
X107966178Y-74363509D01*
X108049843Y-74520034D01*
X108101363Y-74689873D01*
X108118759Y-74866500D01*
X108101363Y-75043127D01*
X108049843Y-75212966D01*
X107966178Y-75369491D01*
X107936848Y-75405229D01*
X107853586Y-75506686D01*
X107752129Y-75589948D01*
X107716391Y-75619278D01*
X107559866Y-75702943D01*
X107390027Y-75754463D01*
X107323842Y-75760982D01*
X107257660Y-75767500D01*
X107169140Y-75767500D01*
X107102958Y-75760982D01*
X107036773Y-75754463D01*
X106866934Y-75702943D01*
X106710409Y-75619278D01*
X106674671Y-75589948D01*
X106573214Y-75506686D01*
X106489952Y-75405229D01*
X106460622Y-75369491D01*
X106376957Y-75212966D01*
X106325437Y-75043127D01*
X106308041Y-74866500D01*
X106325437Y-74689873D01*
X106376957Y-74520034D01*
X106460622Y-74363509D01*
X106489952Y-74327771D01*
X106573214Y-74226314D01*
X106674671Y-74143052D01*
X106710409Y-74113722D01*
X106866934Y-74030057D01*
X107036773Y-73978537D01*
X107102957Y-73972019D01*
X107169140Y-73965500D01*
X107257660Y-73965500D01*
X107323843Y-73972019D01*
X107323843Y-73972019D01*
G37*
G36*
X109863843Y-73972019D02*
G01*
X109930027Y-73978537D01*
X110099866Y-74030057D01*
X110256391Y-74113722D01*
X110292129Y-74143052D01*
X110393586Y-74226314D01*
X110476848Y-74327771D01*
X110506178Y-74363509D01*
X110589843Y-74520034D01*
X110641363Y-74689873D01*
X110658759Y-74866500D01*
X110641363Y-75043127D01*
X110589843Y-75212966D01*
X110506178Y-75369491D01*
X110476848Y-75405229D01*
X110393586Y-75506686D01*
X110292129Y-75589948D01*
X110256391Y-75619278D01*
X110099866Y-75702943D01*
X109930027Y-75754463D01*
X109863842Y-75760982D01*
X109797660Y-75767500D01*
X109709140Y-75767500D01*
X109642958Y-75760982D01*
X109576773Y-75754463D01*
X109406934Y-75702943D01*
X109250409Y-75619278D01*
X109214671Y-75589948D01*
X109113214Y-75506686D01*
X109029952Y-75405229D01*
X109000622Y-75369491D01*
X108916957Y-75212966D01*
X108865437Y-75043127D01*
X108848041Y-74866500D01*
X108865437Y-74689873D01*
X108916957Y-74520034D01*
X109000622Y-74363509D01*
X109029952Y-74327771D01*
X109113214Y-74226314D01*
X109214671Y-74143052D01*
X109250409Y-74113722D01*
X109406934Y-74030057D01*
X109576773Y-73978537D01*
X109642957Y-73972019D01*
X109709140Y-73965500D01*
X109797660Y-73965500D01*
X109863843Y-73972019D01*
X109863843Y-73972019D01*
G37*
G36*
X144890443Y-71495519D02*
G01*
X144956627Y-71502037D01*
X145126466Y-71553557D01*
X145282991Y-71637222D01*
X145318729Y-71666552D01*
X145420186Y-71749814D01*
X145503448Y-71851271D01*
X145532778Y-71887009D01*
X145616443Y-72043534D01*
X145667963Y-72213373D01*
X145685359Y-72390000D01*
X145667963Y-72566627D01*
X145616443Y-72736466D01*
X145532778Y-72892991D01*
X145503448Y-72928729D01*
X145420186Y-73030186D01*
X145318729Y-73113448D01*
X145282991Y-73142778D01*
X145126466Y-73226443D01*
X144956627Y-73277963D01*
X144890443Y-73284481D01*
X144824260Y-73291000D01*
X144735740Y-73291000D01*
X144669557Y-73284481D01*
X144603373Y-73277963D01*
X144433534Y-73226443D01*
X144277009Y-73142778D01*
X144241271Y-73113448D01*
X144139814Y-73030186D01*
X144056552Y-72928729D01*
X144027222Y-72892991D01*
X143943557Y-72736466D01*
X143892037Y-72566627D01*
X143874641Y-72390000D01*
X143892037Y-72213373D01*
X143943557Y-72043534D01*
X144027222Y-71887009D01*
X144056552Y-71851271D01*
X144139814Y-71749814D01*
X144241271Y-71666552D01*
X144277009Y-71637222D01*
X144433534Y-71553557D01*
X144603373Y-71502037D01*
X144669557Y-71495519D01*
X144735740Y-71489000D01*
X144824260Y-71489000D01*
X144890443Y-71495519D01*
X144890443Y-71495519D01*
G37*
G36*
X142350443Y-71495519D02*
G01*
X142416627Y-71502037D01*
X142586466Y-71553557D01*
X142742991Y-71637222D01*
X142778729Y-71666552D01*
X142880186Y-71749814D01*
X142963448Y-71851271D01*
X142992778Y-71887009D01*
X143076443Y-72043534D01*
X143127963Y-72213373D01*
X143145359Y-72390000D01*
X143127963Y-72566627D01*
X143076443Y-72736466D01*
X142992778Y-72892991D01*
X142963448Y-72928729D01*
X142880186Y-73030186D01*
X142778729Y-73113448D01*
X142742991Y-73142778D01*
X142586466Y-73226443D01*
X142416627Y-73277963D01*
X142350443Y-73284481D01*
X142284260Y-73291000D01*
X142195740Y-73291000D01*
X142129557Y-73284481D01*
X142063373Y-73277963D01*
X141893534Y-73226443D01*
X141737009Y-73142778D01*
X141701271Y-73113448D01*
X141599814Y-73030186D01*
X141516552Y-72928729D01*
X141487222Y-72892991D01*
X141403557Y-72736466D01*
X141352037Y-72566627D01*
X141334641Y-72390000D01*
X141352037Y-72213373D01*
X141403557Y-72043534D01*
X141487222Y-71887009D01*
X141516552Y-71851271D01*
X141599814Y-71749814D01*
X141701271Y-71666552D01*
X141737009Y-71637222D01*
X141893534Y-71553557D01*
X142063373Y-71502037D01*
X142129557Y-71495519D01*
X142195740Y-71489000D01*
X142284260Y-71489000D01*
X142350443Y-71495519D01*
X142350443Y-71495519D01*
G37*
G36*
X109863843Y-71432019D02*
G01*
X109930027Y-71438537D01*
X110099866Y-71490057D01*
X110256391Y-71573722D01*
X110292129Y-71603052D01*
X110393586Y-71686314D01*
X110476848Y-71787771D01*
X110506178Y-71823509D01*
X110589843Y-71980034D01*
X110641363Y-72149873D01*
X110658759Y-72326500D01*
X110641363Y-72503127D01*
X110589843Y-72672966D01*
X110506178Y-72829491D01*
X110476848Y-72865229D01*
X110393586Y-72966686D01*
X110292129Y-73049948D01*
X110256391Y-73079278D01*
X110099866Y-73162943D01*
X109930027Y-73214463D01*
X109863843Y-73220981D01*
X109797660Y-73227500D01*
X109709140Y-73227500D01*
X109642957Y-73220981D01*
X109576773Y-73214463D01*
X109406934Y-73162943D01*
X109250409Y-73079278D01*
X109214671Y-73049948D01*
X109113214Y-72966686D01*
X109029952Y-72865229D01*
X109000622Y-72829491D01*
X108916957Y-72672966D01*
X108865437Y-72503127D01*
X108848041Y-72326500D01*
X108865437Y-72149873D01*
X108916957Y-71980034D01*
X109000622Y-71823509D01*
X109029952Y-71787771D01*
X109113214Y-71686314D01*
X109214671Y-71603052D01*
X109250409Y-71573722D01*
X109406934Y-71490057D01*
X109576773Y-71438537D01*
X109642957Y-71432019D01*
X109709140Y-71425500D01*
X109797660Y-71425500D01*
X109863843Y-71432019D01*
X109863843Y-71432019D01*
G37*
G36*
X107323843Y-71432019D02*
G01*
X107390027Y-71438537D01*
X107559866Y-71490057D01*
X107716391Y-71573722D01*
X107752129Y-71603052D01*
X107853586Y-71686314D01*
X107936848Y-71787771D01*
X107966178Y-71823509D01*
X108049843Y-71980034D01*
X108101363Y-72149873D01*
X108118759Y-72326500D01*
X108101363Y-72503127D01*
X108049843Y-72672966D01*
X107966178Y-72829491D01*
X107936848Y-72865229D01*
X107853586Y-72966686D01*
X107752129Y-73049948D01*
X107716391Y-73079278D01*
X107559866Y-73162943D01*
X107390027Y-73214463D01*
X107323843Y-73220981D01*
X107257660Y-73227500D01*
X107169140Y-73227500D01*
X107102957Y-73220981D01*
X107036773Y-73214463D01*
X106866934Y-73162943D01*
X106710409Y-73079278D01*
X106674671Y-73049948D01*
X106573214Y-72966686D01*
X106489952Y-72865229D01*
X106460622Y-72829491D01*
X106376957Y-72672966D01*
X106325437Y-72503127D01*
X106308041Y-72326500D01*
X106325437Y-72149873D01*
X106376957Y-71980034D01*
X106460622Y-71823509D01*
X106489952Y-71787771D01*
X106573214Y-71686314D01*
X106674671Y-71603052D01*
X106710409Y-71573722D01*
X106866934Y-71490057D01*
X107036773Y-71438537D01*
X107102957Y-71432019D01*
X107169140Y-71425500D01*
X107257660Y-71425500D01*
X107323843Y-71432019D01*
X107323843Y-71432019D01*
G37*
G36*
X142350443Y-68955519D02*
G01*
X142416627Y-68962037D01*
X142586466Y-69013557D01*
X142742991Y-69097222D01*
X142778729Y-69126552D01*
X142880186Y-69209814D01*
X142963448Y-69311271D01*
X142992778Y-69347009D01*
X143076443Y-69503534D01*
X143127963Y-69673373D01*
X143145359Y-69850000D01*
X143127963Y-70026627D01*
X143076443Y-70196466D01*
X142992778Y-70352991D01*
X142963448Y-70388729D01*
X142880186Y-70490186D01*
X142778729Y-70573448D01*
X142742991Y-70602778D01*
X142586466Y-70686443D01*
X142416627Y-70737963D01*
X142350443Y-70744481D01*
X142284260Y-70751000D01*
X142195740Y-70751000D01*
X142129557Y-70744481D01*
X142063373Y-70737963D01*
X141893534Y-70686443D01*
X141737009Y-70602778D01*
X141701271Y-70573448D01*
X141599814Y-70490186D01*
X141516552Y-70388729D01*
X141487222Y-70352991D01*
X141403557Y-70196466D01*
X141352037Y-70026627D01*
X141334641Y-69850000D01*
X141352037Y-69673373D01*
X141403557Y-69503534D01*
X141487222Y-69347009D01*
X141516552Y-69311271D01*
X141599814Y-69209814D01*
X141701271Y-69126552D01*
X141737009Y-69097222D01*
X141893534Y-69013557D01*
X142063373Y-68962037D01*
X142129557Y-68955519D01*
X142195740Y-68949000D01*
X142284260Y-68949000D01*
X142350443Y-68955519D01*
X142350443Y-68955519D01*
G37*
G36*
X144890443Y-68955519D02*
G01*
X144956627Y-68962037D01*
X145126466Y-69013557D01*
X145282991Y-69097222D01*
X145318729Y-69126552D01*
X145420186Y-69209814D01*
X145503448Y-69311271D01*
X145532778Y-69347009D01*
X145616443Y-69503534D01*
X145667963Y-69673373D01*
X145685359Y-69850000D01*
X145667963Y-70026627D01*
X145616443Y-70196466D01*
X145532778Y-70352991D01*
X145503448Y-70388729D01*
X145420186Y-70490186D01*
X145318729Y-70573448D01*
X145282991Y-70602778D01*
X145126466Y-70686443D01*
X144956627Y-70737963D01*
X144890443Y-70744481D01*
X144824260Y-70751000D01*
X144735740Y-70751000D01*
X144669557Y-70744481D01*
X144603373Y-70737963D01*
X144433534Y-70686443D01*
X144277009Y-70602778D01*
X144241271Y-70573448D01*
X144139814Y-70490186D01*
X144056552Y-70388729D01*
X144027222Y-70352991D01*
X143943557Y-70196466D01*
X143892037Y-70026627D01*
X143874641Y-69850000D01*
X143892037Y-69673373D01*
X143943557Y-69503534D01*
X144027222Y-69347009D01*
X144056552Y-69311271D01*
X144139814Y-69209814D01*
X144241271Y-69126552D01*
X144277009Y-69097222D01*
X144433534Y-69013557D01*
X144603373Y-68962037D01*
X144669557Y-68955519D01*
X144735740Y-68949000D01*
X144824260Y-68949000D01*
X144890443Y-68955519D01*
X144890443Y-68955519D01*
G37*
G36*
X109863842Y-68892018D02*
G01*
X109930027Y-68898537D01*
X110099866Y-68950057D01*
X110256391Y-69033722D01*
X110292129Y-69063052D01*
X110393586Y-69146314D01*
X110476848Y-69247771D01*
X110506178Y-69283509D01*
X110589843Y-69440034D01*
X110641363Y-69609873D01*
X110658759Y-69786500D01*
X110641363Y-69963127D01*
X110589843Y-70132966D01*
X110506178Y-70289491D01*
X110476848Y-70325229D01*
X110393586Y-70426686D01*
X110292129Y-70509948D01*
X110256391Y-70539278D01*
X110099866Y-70622943D01*
X109930027Y-70674463D01*
X109863842Y-70680982D01*
X109797660Y-70687500D01*
X109709140Y-70687500D01*
X109642958Y-70680982D01*
X109576773Y-70674463D01*
X109406934Y-70622943D01*
X109250409Y-70539278D01*
X109214671Y-70509948D01*
X109113214Y-70426686D01*
X109029952Y-70325229D01*
X109000622Y-70289491D01*
X108916957Y-70132966D01*
X108865437Y-69963127D01*
X108848041Y-69786500D01*
X108865437Y-69609873D01*
X108916957Y-69440034D01*
X109000622Y-69283509D01*
X109029952Y-69247771D01*
X109113214Y-69146314D01*
X109214671Y-69063052D01*
X109250409Y-69033722D01*
X109406934Y-68950057D01*
X109576773Y-68898537D01*
X109642958Y-68892018D01*
X109709140Y-68885500D01*
X109797660Y-68885500D01*
X109863842Y-68892018D01*
X109863842Y-68892018D01*
G37*
G36*
X107323842Y-68892018D02*
G01*
X107390027Y-68898537D01*
X107559866Y-68950057D01*
X107716391Y-69033722D01*
X107752129Y-69063052D01*
X107853586Y-69146314D01*
X107936848Y-69247771D01*
X107966178Y-69283509D01*
X108049843Y-69440034D01*
X108101363Y-69609873D01*
X108118759Y-69786500D01*
X108101363Y-69963127D01*
X108049843Y-70132966D01*
X107966178Y-70289491D01*
X107936848Y-70325229D01*
X107853586Y-70426686D01*
X107752129Y-70509948D01*
X107716391Y-70539278D01*
X107559866Y-70622943D01*
X107390027Y-70674463D01*
X107323842Y-70680982D01*
X107257660Y-70687500D01*
X107169140Y-70687500D01*
X107102958Y-70680982D01*
X107036773Y-70674463D01*
X106866934Y-70622943D01*
X106710409Y-70539278D01*
X106674671Y-70509948D01*
X106573214Y-70426686D01*
X106489952Y-70325229D01*
X106460622Y-70289491D01*
X106376957Y-70132966D01*
X106325437Y-69963127D01*
X106308041Y-69786500D01*
X106325437Y-69609873D01*
X106376957Y-69440034D01*
X106460622Y-69283509D01*
X106489952Y-69247771D01*
X106573214Y-69146314D01*
X106674671Y-69063052D01*
X106710409Y-69033722D01*
X106866934Y-68950057D01*
X107036773Y-68898537D01*
X107102958Y-68892018D01*
X107169140Y-68885500D01*
X107257660Y-68885500D01*
X107323842Y-68892018D01*
X107323842Y-68892018D01*
G37*
G36*
X144890443Y-66415519D02*
G01*
X144956627Y-66422037D01*
X145126466Y-66473557D01*
X145282991Y-66557222D01*
X145318729Y-66586552D01*
X145420186Y-66669814D01*
X145503448Y-66771271D01*
X145532778Y-66807009D01*
X145616443Y-66963534D01*
X145667963Y-67133373D01*
X145685359Y-67310000D01*
X145667963Y-67486627D01*
X145616443Y-67656466D01*
X145532778Y-67812991D01*
X145503448Y-67848729D01*
X145420186Y-67950186D01*
X145318729Y-68033448D01*
X145282991Y-68062778D01*
X145126466Y-68146443D01*
X144956627Y-68197963D01*
X144890443Y-68204481D01*
X144824260Y-68211000D01*
X144735740Y-68211000D01*
X144669557Y-68204481D01*
X144603373Y-68197963D01*
X144433534Y-68146443D01*
X144277009Y-68062778D01*
X144241271Y-68033448D01*
X144139814Y-67950186D01*
X144056552Y-67848729D01*
X144027222Y-67812991D01*
X143943557Y-67656466D01*
X143892037Y-67486627D01*
X143874641Y-67310000D01*
X143892037Y-67133373D01*
X143943557Y-66963534D01*
X144027222Y-66807009D01*
X144056552Y-66771271D01*
X144139814Y-66669814D01*
X144241271Y-66586552D01*
X144277009Y-66557222D01*
X144433534Y-66473557D01*
X144603373Y-66422037D01*
X144669557Y-66415519D01*
X144735740Y-66409000D01*
X144824260Y-66409000D01*
X144890443Y-66415519D01*
X144890443Y-66415519D01*
G37*
G36*
X142350443Y-66415519D02*
G01*
X142416627Y-66422037D01*
X142586466Y-66473557D01*
X142742991Y-66557222D01*
X142778729Y-66586552D01*
X142880186Y-66669814D01*
X142963448Y-66771271D01*
X142992778Y-66807009D01*
X143076443Y-66963534D01*
X143127963Y-67133373D01*
X143145359Y-67310000D01*
X143127963Y-67486627D01*
X143076443Y-67656466D01*
X142992778Y-67812991D01*
X142963448Y-67848729D01*
X142880186Y-67950186D01*
X142778729Y-68033448D01*
X142742991Y-68062778D01*
X142586466Y-68146443D01*
X142416627Y-68197963D01*
X142350443Y-68204481D01*
X142284260Y-68211000D01*
X142195740Y-68211000D01*
X142129557Y-68204481D01*
X142063373Y-68197963D01*
X141893534Y-68146443D01*
X141737009Y-68062778D01*
X141701271Y-68033448D01*
X141599814Y-67950186D01*
X141516552Y-67848729D01*
X141487222Y-67812991D01*
X141403557Y-67656466D01*
X141352037Y-67486627D01*
X141334641Y-67310000D01*
X141352037Y-67133373D01*
X141403557Y-66963534D01*
X141487222Y-66807009D01*
X141516552Y-66771271D01*
X141599814Y-66669814D01*
X141701271Y-66586552D01*
X141737009Y-66557222D01*
X141893534Y-66473557D01*
X142063373Y-66422037D01*
X142129557Y-66415519D01*
X142195740Y-66409000D01*
X142284260Y-66409000D01*
X142350443Y-66415519D01*
X142350443Y-66415519D01*
G37*
G36*
X109863843Y-66352019D02*
G01*
X109930027Y-66358537D01*
X110099866Y-66410057D01*
X110256391Y-66493722D01*
X110292129Y-66523052D01*
X110393586Y-66606314D01*
X110476848Y-66707771D01*
X110506178Y-66743509D01*
X110589843Y-66900034D01*
X110641363Y-67069873D01*
X110658759Y-67246500D01*
X110641363Y-67423127D01*
X110589843Y-67592966D01*
X110506178Y-67749491D01*
X110476848Y-67785229D01*
X110393586Y-67886686D01*
X110292129Y-67969948D01*
X110256391Y-67999278D01*
X110099866Y-68082943D01*
X109930027Y-68134463D01*
X109863843Y-68140981D01*
X109797660Y-68147500D01*
X109709140Y-68147500D01*
X109642957Y-68140981D01*
X109576773Y-68134463D01*
X109406934Y-68082943D01*
X109250409Y-67999278D01*
X109214671Y-67969948D01*
X109113214Y-67886686D01*
X109029952Y-67785229D01*
X109000622Y-67749491D01*
X108916957Y-67592966D01*
X108865437Y-67423127D01*
X108848041Y-67246500D01*
X108865437Y-67069873D01*
X108916957Y-66900034D01*
X109000622Y-66743509D01*
X109029952Y-66707771D01*
X109113214Y-66606314D01*
X109214671Y-66523052D01*
X109250409Y-66493722D01*
X109406934Y-66410057D01*
X109576773Y-66358537D01*
X109642957Y-66352019D01*
X109709140Y-66345500D01*
X109797660Y-66345500D01*
X109863843Y-66352019D01*
X109863843Y-66352019D01*
G37*
G36*
X107323843Y-66352019D02*
G01*
X107390027Y-66358537D01*
X107559866Y-66410057D01*
X107716391Y-66493722D01*
X107752129Y-66523052D01*
X107853586Y-66606314D01*
X107936848Y-66707771D01*
X107966178Y-66743509D01*
X108049843Y-66900034D01*
X108101363Y-67069873D01*
X108118759Y-67246500D01*
X108101363Y-67423127D01*
X108049843Y-67592966D01*
X107966178Y-67749491D01*
X107936848Y-67785229D01*
X107853586Y-67886686D01*
X107752129Y-67969948D01*
X107716391Y-67999278D01*
X107559866Y-68082943D01*
X107390027Y-68134463D01*
X107323843Y-68140981D01*
X107257660Y-68147500D01*
X107169140Y-68147500D01*
X107102957Y-68140981D01*
X107036773Y-68134463D01*
X106866934Y-68082943D01*
X106710409Y-67999278D01*
X106674671Y-67969948D01*
X106573214Y-67886686D01*
X106489952Y-67785229D01*
X106460622Y-67749491D01*
X106376957Y-67592966D01*
X106325437Y-67423127D01*
X106308041Y-67246500D01*
X106325437Y-67069873D01*
X106376957Y-66900034D01*
X106460622Y-66743509D01*
X106489952Y-66707771D01*
X106573214Y-66606314D01*
X106674671Y-66523052D01*
X106710409Y-66493722D01*
X106866934Y-66410057D01*
X107036773Y-66358537D01*
X107102957Y-66352019D01*
X107169140Y-66345500D01*
X107257660Y-66345500D01*
X107323843Y-66352019D01*
X107323843Y-66352019D01*
G37*
G36*
X142350442Y-63875518D02*
G01*
X142416627Y-63882037D01*
X142586466Y-63933557D01*
X142742991Y-64017222D01*
X142778729Y-64046552D01*
X142880186Y-64129814D01*
X142963448Y-64231271D01*
X142992778Y-64267009D01*
X143076443Y-64423534D01*
X143127963Y-64593373D01*
X143145359Y-64770000D01*
X143127963Y-64946627D01*
X143076443Y-65116466D01*
X142992778Y-65272991D01*
X142963448Y-65308729D01*
X142880186Y-65410186D01*
X142778729Y-65493448D01*
X142742991Y-65522778D01*
X142586466Y-65606443D01*
X142416627Y-65657963D01*
X142350442Y-65664482D01*
X142284260Y-65671000D01*
X142195740Y-65671000D01*
X142129558Y-65664482D01*
X142063373Y-65657963D01*
X141893534Y-65606443D01*
X141737009Y-65522778D01*
X141701271Y-65493448D01*
X141599814Y-65410186D01*
X141516552Y-65308729D01*
X141487222Y-65272991D01*
X141403557Y-65116466D01*
X141352037Y-64946627D01*
X141334641Y-64770000D01*
X141352037Y-64593373D01*
X141403557Y-64423534D01*
X141487222Y-64267009D01*
X141516552Y-64231271D01*
X141599814Y-64129814D01*
X141701271Y-64046552D01*
X141737009Y-64017222D01*
X141893534Y-63933557D01*
X142063373Y-63882037D01*
X142129558Y-63875518D01*
X142195740Y-63869000D01*
X142284260Y-63869000D01*
X142350442Y-63875518D01*
X142350442Y-63875518D01*
G37*
G36*
X144890442Y-63875518D02*
G01*
X144956627Y-63882037D01*
X145126466Y-63933557D01*
X145282991Y-64017222D01*
X145318729Y-64046552D01*
X145420186Y-64129814D01*
X145503448Y-64231271D01*
X145532778Y-64267009D01*
X145616443Y-64423534D01*
X145667963Y-64593373D01*
X145685359Y-64770000D01*
X145667963Y-64946627D01*
X145616443Y-65116466D01*
X145532778Y-65272991D01*
X145503448Y-65308729D01*
X145420186Y-65410186D01*
X145318729Y-65493448D01*
X145282991Y-65522778D01*
X145126466Y-65606443D01*
X144956627Y-65657963D01*
X144890442Y-65664482D01*
X144824260Y-65671000D01*
X144735740Y-65671000D01*
X144669558Y-65664482D01*
X144603373Y-65657963D01*
X144433534Y-65606443D01*
X144277009Y-65522778D01*
X144241271Y-65493448D01*
X144139814Y-65410186D01*
X144056552Y-65308729D01*
X144027222Y-65272991D01*
X143943557Y-65116466D01*
X143892037Y-64946627D01*
X143874641Y-64770000D01*
X143892037Y-64593373D01*
X143943557Y-64423534D01*
X144027222Y-64267009D01*
X144056552Y-64231271D01*
X144139814Y-64129814D01*
X144241271Y-64046552D01*
X144277009Y-64017222D01*
X144433534Y-63933557D01*
X144603373Y-63882037D01*
X144669558Y-63875518D01*
X144735740Y-63869000D01*
X144824260Y-63869000D01*
X144890442Y-63875518D01*
X144890442Y-63875518D01*
G37*
G36*
X107323843Y-63812019D02*
G01*
X107390027Y-63818537D01*
X107559866Y-63870057D01*
X107716391Y-63953722D01*
X107752129Y-63983052D01*
X107853586Y-64066314D01*
X107936848Y-64167771D01*
X107966178Y-64203509D01*
X108049843Y-64360034D01*
X108101363Y-64529873D01*
X108118759Y-64706500D01*
X108101363Y-64883127D01*
X108049843Y-65052966D01*
X107966178Y-65209491D01*
X107936848Y-65245229D01*
X107853586Y-65346686D01*
X107752129Y-65429948D01*
X107716391Y-65459278D01*
X107559866Y-65542943D01*
X107390027Y-65594463D01*
X107323842Y-65600982D01*
X107257660Y-65607500D01*
X107169140Y-65607500D01*
X107102958Y-65600982D01*
X107036773Y-65594463D01*
X106866934Y-65542943D01*
X106710409Y-65459278D01*
X106674671Y-65429948D01*
X106573214Y-65346686D01*
X106489952Y-65245229D01*
X106460622Y-65209491D01*
X106376957Y-65052966D01*
X106325437Y-64883127D01*
X106308041Y-64706500D01*
X106325437Y-64529873D01*
X106376957Y-64360034D01*
X106460622Y-64203509D01*
X106489952Y-64167771D01*
X106573214Y-64066314D01*
X106674671Y-63983052D01*
X106710409Y-63953722D01*
X106866934Y-63870057D01*
X107036773Y-63818537D01*
X107102957Y-63812019D01*
X107169140Y-63805500D01*
X107257660Y-63805500D01*
X107323843Y-63812019D01*
X107323843Y-63812019D01*
G37*
G36*
X142350443Y-61335519D02*
G01*
X142416627Y-61342037D01*
X142586466Y-61393557D01*
X142742991Y-61477222D01*
X142778729Y-61506552D01*
X142880186Y-61589814D01*
X142963448Y-61691271D01*
X142992778Y-61727009D01*
X143076443Y-61883534D01*
X143127963Y-62053373D01*
X143145359Y-62230000D01*
X143127963Y-62406627D01*
X143076443Y-62576466D01*
X142992778Y-62732991D01*
X142963448Y-62768729D01*
X142880186Y-62870186D01*
X142778729Y-62953448D01*
X142742991Y-62982778D01*
X142586466Y-63066443D01*
X142416627Y-63117963D01*
X142350443Y-63124481D01*
X142284260Y-63131000D01*
X142195740Y-63131000D01*
X142129557Y-63124481D01*
X142063373Y-63117963D01*
X141893534Y-63066443D01*
X141737009Y-62982778D01*
X141701271Y-62953448D01*
X141599814Y-62870186D01*
X141516552Y-62768729D01*
X141487222Y-62732991D01*
X141403557Y-62576466D01*
X141352037Y-62406627D01*
X141334641Y-62230000D01*
X141352037Y-62053373D01*
X141403557Y-61883534D01*
X141487222Y-61727009D01*
X141516552Y-61691271D01*
X141599814Y-61589814D01*
X141701271Y-61506552D01*
X141737009Y-61477222D01*
X141893534Y-61393557D01*
X142063373Y-61342037D01*
X142129557Y-61335519D01*
X142195740Y-61329000D01*
X142284260Y-61329000D01*
X142350443Y-61335519D01*
X142350443Y-61335519D01*
G37*
G36*
X144890443Y-61335519D02*
G01*
X144956627Y-61342037D01*
X145126466Y-61393557D01*
X145282991Y-61477222D01*
X145318729Y-61506552D01*
X145420186Y-61589814D01*
X145503448Y-61691271D01*
X145532778Y-61727009D01*
X145616443Y-61883534D01*
X145667963Y-62053373D01*
X145685359Y-62230000D01*
X145667963Y-62406627D01*
X145616443Y-62576466D01*
X145532778Y-62732991D01*
X145503448Y-62768729D01*
X145420186Y-62870186D01*
X145318729Y-62953448D01*
X145282991Y-62982778D01*
X145126466Y-63066443D01*
X144956627Y-63117963D01*
X144890443Y-63124481D01*
X144824260Y-63131000D01*
X144735740Y-63131000D01*
X144669557Y-63124481D01*
X144603373Y-63117963D01*
X144433534Y-63066443D01*
X144277009Y-62982778D01*
X144241271Y-62953448D01*
X144139814Y-62870186D01*
X144056552Y-62768729D01*
X144027222Y-62732991D01*
X143943557Y-62576466D01*
X143892037Y-62406627D01*
X143874641Y-62230000D01*
X143892037Y-62053373D01*
X143943557Y-61883534D01*
X144027222Y-61727009D01*
X144056552Y-61691271D01*
X144139814Y-61589814D01*
X144241271Y-61506552D01*
X144277009Y-61477222D01*
X144433534Y-61393557D01*
X144603373Y-61342037D01*
X144669557Y-61335519D01*
X144735740Y-61329000D01*
X144824260Y-61329000D01*
X144890443Y-61335519D01*
X144890443Y-61335519D01*
G37*
G36*
X107323843Y-61272019D02*
G01*
X107390027Y-61278537D01*
X107559866Y-61330057D01*
X107716391Y-61413722D01*
X107752129Y-61443052D01*
X107853586Y-61526314D01*
X107936848Y-61627771D01*
X107966178Y-61663509D01*
X108049843Y-61820034D01*
X108101363Y-61989873D01*
X108118759Y-62166500D01*
X108101363Y-62343127D01*
X108049843Y-62512966D01*
X107966178Y-62669491D01*
X107936848Y-62705229D01*
X107853586Y-62806686D01*
X107752129Y-62889948D01*
X107716391Y-62919278D01*
X107559866Y-63002943D01*
X107390027Y-63054463D01*
X107323843Y-63060981D01*
X107257660Y-63067500D01*
X107169140Y-63067500D01*
X107102957Y-63060981D01*
X107036773Y-63054463D01*
X106866934Y-63002943D01*
X106710409Y-62919278D01*
X106674671Y-62889948D01*
X106573214Y-62806686D01*
X106489952Y-62705229D01*
X106460622Y-62669491D01*
X106376957Y-62512966D01*
X106325437Y-62343127D01*
X106308041Y-62166500D01*
X106325437Y-61989873D01*
X106376957Y-61820034D01*
X106460622Y-61663509D01*
X106489952Y-61627771D01*
X106573214Y-61526314D01*
X106674671Y-61443052D01*
X106710409Y-61413722D01*
X106866934Y-61330057D01*
X107036773Y-61278537D01*
X107102957Y-61272019D01*
X107169140Y-61265500D01*
X107257660Y-61265500D01*
X107323843Y-61272019D01*
X107323843Y-61272019D01*
G37*
G36*
X144890442Y-58795518D02*
G01*
X144956627Y-58802037D01*
X145126466Y-58853557D01*
X145282991Y-58937222D01*
X145318729Y-58966552D01*
X145420186Y-59049814D01*
X145503448Y-59151271D01*
X145532778Y-59187009D01*
X145616443Y-59343534D01*
X145667963Y-59513373D01*
X145685359Y-59690000D01*
X145667963Y-59866627D01*
X145616443Y-60036466D01*
X145532778Y-60192991D01*
X145503448Y-60228729D01*
X145420186Y-60330186D01*
X145318729Y-60413448D01*
X145282991Y-60442778D01*
X145126466Y-60526443D01*
X144956627Y-60577963D01*
X144890443Y-60584481D01*
X144824260Y-60591000D01*
X144735740Y-60591000D01*
X144669557Y-60584481D01*
X144603373Y-60577963D01*
X144433534Y-60526443D01*
X144277009Y-60442778D01*
X144241271Y-60413448D01*
X144139814Y-60330186D01*
X144056552Y-60228729D01*
X144027222Y-60192991D01*
X143943557Y-60036466D01*
X143892037Y-59866627D01*
X143874641Y-59690000D01*
X143892037Y-59513373D01*
X143943557Y-59343534D01*
X144027222Y-59187009D01*
X144056552Y-59151271D01*
X144139814Y-59049814D01*
X144241271Y-58966552D01*
X144277009Y-58937222D01*
X144433534Y-58853557D01*
X144603373Y-58802037D01*
X144669558Y-58795518D01*
X144735740Y-58789000D01*
X144824260Y-58789000D01*
X144890442Y-58795518D01*
X144890442Y-58795518D01*
G37*
G36*
X142350442Y-58795518D02*
G01*
X142416627Y-58802037D01*
X142586466Y-58853557D01*
X142742991Y-58937222D01*
X142778729Y-58966552D01*
X142880186Y-59049814D01*
X142963448Y-59151271D01*
X142992778Y-59187009D01*
X143076443Y-59343534D01*
X143127963Y-59513373D01*
X143145359Y-59690000D01*
X143127963Y-59866627D01*
X143076443Y-60036466D01*
X142992778Y-60192991D01*
X142963448Y-60228729D01*
X142880186Y-60330186D01*
X142778729Y-60413448D01*
X142742991Y-60442778D01*
X142586466Y-60526443D01*
X142416627Y-60577963D01*
X142350443Y-60584481D01*
X142284260Y-60591000D01*
X142195740Y-60591000D01*
X142129557Y-60584481D01*
X142063373Y-60577963D01*
X141893534Y-60526443D01*
X141737009Y-60442778D01*
X141701271Y-60413448D01*
X141599814Y-60330186D01*
X141516552Y-60228729D01*
X141487222Y-60192991D01*
X141403557Y-60036466D01*
X141352037Y-59866627D01*
X141334641Y-59690000D01*
X141352037Y-59513373D01*
X141403557Y-59343534D01*
X141487222Y-59187009D01*
X141516552Y-59151271D01*
X141599814Y-59049814D01*
X141701271Y-58966552D01*
X141737009Y-58937222D01*
X141893534Y-58853557D01*
X142063373Y-58802037D01*
X142129558Y-58795518D01*
X142195740Y-58789000D01*
X142284260Y-58789000D01*
X142350442Y-58795518D01*
X142350442Y-58795518D01*
G37*
G36*
X107323842Y-58732018D02*
G01*
X107390027Y-58738537D01*
X107559866Y-58790057D01*
X107716391Y-58873722D01*
X107752129Y-58903052D01*
X107853586Y-58986314D01*
X107936848Y-59087771D01*
X107966178Y-59123509D01*
X108049843Y-59280034D01*
X108101363Y-59449873D01*
X108118759Y-59626500D01*
X108101363Y-59803127D01*
X108049843Y-59972966D01*
X107966178Y-60129491D01*
X107936848Y-60165229D01*
X107853586Y-60266686D01*
X107752129Y-60349948D01*
X107716391Y-60379278D01*
X107559866Y-60462943D01*
X107390027Y-60514463D01*
X107323842Y-60520982D01*
X107257660Y-60527500D01*
X107169140Y-60527500D01*
X107102958Y-60520982D01*
X107036773Y-60514463D01*
X106866934Y-60462943D01*
X106710409Y-60379278D01*
X106674671Y-60349948D01*
X106573214Y-60266686D01*
X106489952Y-60165229D01*
X106460622Y-60129491D01*
X106376957Y-59972966D01*
X106325437Y-59803127D01*
X106308041Y-59626500D01*
X106325437Y-59449873D01*
X106376957Y-59280034D01*
X106460622Y-59123509D01*
X106489952Y-59087771D01*
X106573214Y-58986314D01*
X106674671Y-58903052D01*
X106710409Y-58873722D01*
X106866934Y-58790057D01*
X107036773Y-58738537D01*
X107102958Y-58732018D01*
X107169140Y-58725500D01*
X107257660Y-58725500D01*
X107323842Y-58732018D01*
X107323842Y-58732018D01*
G37*
G36*
X144890443Y-56255519D02*
G01*
X144956627Y-56262037D01*
X145126466Y-56313557D01*
X145282991Y-56397222D01*
X145318729Y-56426552D01*
X145420186Y-56509814D01*
X145503448Y-56611271D01*
X145532778Y-56647009D01*
X145616443Y-56803534D01*
X145667963Y-56973373D01*
X145685359Y-57150000D01*
X145667963Y-57326627D01*
X145616443Y-57496466D01*
X145532778Y-57652991D01*
X145503448Y-57688729D01*
X145420186Y-57790186D01*
X145318729Y-57873448D01*
X145282991Y-57902778D01*
X145126466Y-57986443D01*
X144956627Y-58037963D01*
X144890442Y-58044482D01*
X144824260Y-58051000D01*
X144735740Y-58051000D01*
X144669558Y-58044482D01*
X144603373Y-58037963D01*
X144433534Y-57986443D01*
X144277009Y-57902778D01*
X144241271Y-57873448D01*
X144139814Y-57790186D01*
X144056552Y-57688729D01*
X144027222Y-57652991D01*
X143943557Y-57496466D01*
X143892037Y-57326627D01*
X143874641Y-57150000D01*
X143892037Y-56973373D01*
X143943557Y-56803534D01*
X144027222Y-56647009D01*
X144056552Y-56611271D01*
X144139814Y-56509814D01*
X144241271Y-56426552D01*
X144277009Y-56397222D01*
X144433534Y-56313557D01*
X144603373Y-56262037D01*
X144669557Y-56255519D01*
X144735740Y-56249000D01*
X144824260Y-56249000D01*
X144890443Y-56255519D01*
X144890443Y-56255519D01*
G37*
G36*
X143141000Y-58051000D02*
G01*
X141339000Y-58051000D01*
X141339000Y-56249000D01*
X143141000Y-56249000D01*
X143141000Y-58051000D01*
X143141000Y-58051000D01*
G37*
G36*
X108114400Y-57987500D02*
G01*
X106312400Y-57987500D01*
X106312400Y-56185500D01*
X108114400Y-56185500D01*
X108114400Y-57987500D01*
X108114400Y-57987500D01*
G37*
M02*
